<svg width="256" height="256" viewBox="0 0 256 256" fill="none" xmlns="http://www.w3.org/2000/svg">
<g clip-path="url(#clip0_271_17)">
<path d="M218.837 128C218.837 178.168 178.168 218.837 128 218.837C77.8319 218.837 37.1627 178.168 37.1627 128C37.1627 77.8319 77.8319 37.1626 128 37.1626C178.168 37.1626 218.837 77.8319 218.837 128Z" fill="#0047B8" stroke="black"/>
<path fill-rule="evenodd" clip-rule="evenodd" d="M151.566 39.738V100.417L202.402 75.0114C207.852 82.6484 212.152 91.1638 215.056 100.3L159.628 128L215.056 155.7C212.152 164.836 207.851 173.35 202.402 180.988L151.566 155.583V216.262C144.047 218.264 136.15 219.337 128 219.337C119.85 219.337 111.952 218.264 104.434 216.262V155.583L53.5983 180.988C48.1478 173.351 43.8482 164.836 40.9437 155.7L96.3723 128L40.9437 100.3C43.8481 91.1638 48.1488 82.6496 53.5983 75.0114L104.434 100.417V39.738C111.953 37.7355 119.85 36.6626 128 36.6626C136.15 36.6626 144.048 37.7355 151.566 39.738Z" fill="white"/>
<path fill-rule="evenodd" clip-rule="evenodd" d="M37.7531 113.861H113.861V37.753C118.469 37.0361 123.191 36.6626 128 36.6626C132.809 36.6626 137.531 37.0361 142.139 37.753V113.861H218.247C218.964 118.469 219.337 123.191 219.337 128C219.337 132.809 218.964 137.531 218.247 142.139H142.139V218.247C137.531 218.964 132.809 219.337 128 219.337C123.191 219.337 118.469 218.964 113.861 218.247V142.139H37.7531C37.0362 137.531 36.6627 132.809 36.6627 128C36.6627 123.191 37.0362 118.469 37.7531 113.861Z" fill="#E31B25"/>
<path fill-rule="evenodd" clip-rule="evenodd" d="M213.774 159.459L195.34 150.436H172.614L209.663 168.941C211.203 165.875 212.581 162.711 213.774 159.459V159.459ZM42.2261 96.5412L60.6604 105.564H83.3863L46.3373 87.0588C44.7966 90.1249 43.4188 93.2889 42.2261 96.5413V96.5412ZM45.8984 168.061L81.5103 150.436H104.236L50.9556 177.075C49.1065 174.178 47.4182 171.167 45.8984 168.061ZM210.102 87.9395L174.362 105.564H151.636L205.044 78.9248C206.893 81.8222 208.582 84.8325 210.101 87.9395H210.102Z" fill="#E31B25"/>
</g>
<defs>
<clipPath id="clip0_271_17">
<rect width="256" height="256" fill="white"/>
</clipPath>
</defs>
</svg>
