<svg width="228" height="23" viewBox="0 0 228 23" fill="none" xmlns="http://www.w3.org/2000/svg">
<g clip-path="url(#clip0_3398_1542)">
<mask id="mask0_3398_1542" style="mask-type:luminance" maskUnits="userSpaceOnUse" x="183" y="0" width="18" height="22">
<path d="M200.335 0.367188H183.141V21.5354H200.335V0.367188Z" fill="white"/>
</mask>
<g mask="url(#mask0_3398_1542)">
<path d="M181.223 11.9436C182.121 11.9436 182.737 12.042 183.241 12.1835C183.622 12.2881 183.948 12.4173 184.299 12.5772C184.564 12.6941 184.84 12.8294 185.154 12.9648C185.622 13.1678 186.169 13.3831 186.827 13.5307C187.486 13.6845 188.255 13.7707 189.177 13.7707C190.266 13.7707 191.146 13.6415 191.884 13.4385C192.438 13.2847 192.899 13.094 193.305 12.9156C193.607 12.7802 193.884 12.651 194.142 12.5342C194.536 12.3619 194.899 12.2266 195.36 12.1158C195.821 12.0113 196.375 11.9374 197.132 11.9374C198.03 11.9374 198.645 12.0359 199.156 12.1773C199.537 12.2819 199.863 12.4111 200.214 12.5711C200.478 12.6879 200.755 12.8233 201.069 12.9586C201.536 13.1616 202.084 13.3769 202.742 13.5246C203.406 13.6784 204.169 13.7645 205.092 13.7645C206.187 13.7645 207.061 13.6353 207.799 13.4323C208.353 13.2785 208.814 13.0878 209.22 12.9094C209.527 12.7741 209.798 12.6449 210.057 12.528C210.45 12.3557 210.813 12.2204 211.275 12.1097C211.736 12.0051 212.29 11.9313 213.052 11.9313C213.951 11.9313 214.566 12.0297 215.076 12.1712C215.458 12.2758 215.784 12.405 216.134 12.5649C216.399 12.6818 216.676 12.8171 216.99 12.9525C217.457 13.1555 218.005 13.3708 218.663 13.5184C219.327 13.6722 220.09 13.7584 221.013 13.7584V9.94426C220.115 9.94426 219.5 9.84583 218.989 9.70434C218.607 9.59976 218.281 9.47057 217.931 9.31063C217.666 9.19374 217.389 9.06456 217.076 8.92307C216.608 8.72006 216.061 8.50475 215.396 8.35711C214.738 8.20331 213.969 8.11719 213.046 8.11719C211.951 8.11719 211.078 8.24638 210.34 8.44938C209.786 8.60318 209.318 8.79388 208.918 8.97228C208.617 9.10762 208.34 9.23681 208.082 9.35369C207.688 9.52594 207.319 9.66128 206.864 9.77201C206.402 9.87659 205.849 9.95041 205.086 9.95041C204.188 9.95041 203.573 9.85198 203.062 9.71049C202.681 9.60591 202.355 9.47673 202.004 9.31678C201.739 9.1999 201.463 9.07071 201.149 8.92922C200.681 8.72621 200.134 8.5109 199.476 8.36326C198.817 8.20946 198.048 8.12334 197.126 8.12334C196.037 8.12334 195.157 8.25253 194.419 8.45553C193.865 8.60933 193.404 8.80003 192.998 8.97843C192.696 9.11377 192.419 9.24296 192.161 9.35984C191.767 9.53209 191.404 9.66743 190.943 9.77816C190.482 9.88274 189.928 9.95656 189.171 9.95656C188.273 9.95656 187.658 9.85814 187.147 9.71664C186.766 9.61206 186.44 9.48288 186.089 9.32293C185.825 9.20605 185.548 9.07686 185.234 8.93537C184.767 8.73236 184.219 8.51705 183.561 8.36941C182.897 8.21562 182.134 8.12949 181.211 8.12949V11.9436H181.223Z" fill="#00A5A7"/>
<path d="M181.223 4.18186C182.121 4.18186 182.737 4.28029 183.241 4.42178C183.622 4.52636 183.948 4.65555 184.299 4.8155C184.564 4.93238 184.84 5.06772 185.154 5.20306C185.622 5.40606 186.169 5.62138 186.827 5.76902C187.486 5.92281 188.255 6.00894 189.177 6.00894C190.266 6.00894 191.146 5.87975 191.884 5.67674C192.438 5.52295 192.899 5.33224 193.305 5.15384C193.607 5.0185 193.884 4.88931 194.142 4.77243C194.536 4.60018 194.899 4.46485 195.36 4.35411C195.821 4.24953 196.375 4.17571 197.132 4.17571C198.03 4.17571 198.645 4.27414 199.156 4.41563C199.537 4.52021 199.863 4.6494 200.214 4.80934C200.478 4.92623 200.755 5.06157 201.069 5.1969C201.536 5.39991 202.084 5.61522 202.742 5.76287C203.406 5.91666 204.169 6.00278 205.092 6.00278C206.187 6.00278 207.061 5.8736 207.799 5.67059C208.353 5.5168 208.814 5.32609 209.22 5.14769C209.527 5.01235 209.798 4.88316 210.057 4.76628C210.45 4.59403 210.819 4.45869 211.275 4.34796C211.736 4.24338 212.29 4.16956 213.052 4.16956C213.951 4.16956 214.566 4.26799 215.076 4.40948C215.458 4.51406 215.784 4.64325 216.134 4.80319C216.399 4.92008 216.676 5.05541 216.99 5.19075C217.457 5.39376 218.005 5.60907 218.663 5.75671C219.327 5.91051 220.09 5.99663 221.013 5.99663V2.18254C220.115 2.18254 219.5 2.08411 218.989 1.94262C218.607 1.83804 218.281 1.70886 217.931 1.54891C217.666 1.43203 217.389 1.29669 217.076 1.16135C216.608 0.95834 216.061 0.743029 215.396 0.595387C214.738 0.441593 213.969 0.355469 213.046 0.355469C211.951 0.355469 211.078 0.484654 210.34 0.687662C209.786 0.841456 209.318 1.03216 208.918 1.21056C208.611 1.3459 208.34 1.47509 208.082 1.59197C207.688 1.76422 207.319 1.89956 206.864 2.01029C206.402 2.11487 205.849 2.18869 205.086 2.18869C204.188 2.18869 203.573 2.09026 203.062 1.94877C202.681 1.84419 202.355 1.71501 202.004 1.55506C201.739 1.43818 201.463 1.30284 201.149 1.1675C200.681 0.964493 200.134 0.74918 199.476 0.601538C198.817 0.447744 198.048 0.361619 197.126 0.361619C196.037 0.361619 195.157 0.490807 194.419 0.693815C193.865 0.847609 193.404 1.03831 192.998 1.21671C192.696 1.35205 192.419 1.48124 192.161 1.59812C191.767 1.77037 191.404 1.90571 190.943 2.01644C190.482 2.12102 189.928 2.19484 189.171 2.19484C188.273 2.19484 187.658 2.09642 187.147 1.95493C186.766 1.85035 186.44 1.72116 186.089 1.56121C185.825 1.44433 185.548 1.30899 185.234 1.17365C184.767 0.970644 184.219 0.755333 183.561 0.607691C182.897 0.453897 182.134 0.36777 181.211 0.36777V4.18186H181.223Z" fill="#00A5A7"/>
<path d="M181.223 19.7092C182.121 19.7092 182.737 19.8076 183.241 19.9491C183.622 20.0537 183.948 20.1829 184.299 20.3428C184.564 20.4597 184.84 20.5951 185.154 20.7304C185.622 20.9334 186.169 21.1487 186.827 21.2964C187.486 21.4502 188.255 21.5363 189.177 21.5363C190.266 21.5363 191.146 21.4071 191.884 21.2041C192.438 21.0503 192.899 20.8596 193.305 20.6812C193.607 20.5458 193.884 20.4167 194.142 20.2998C194.536 20.1275 194.899 19.9922 195.36 19.8815C195.821 19.7769 196.375 19.7031 197.132 19.7031C198.03 19.7031 198.645 19.8015 199.156 19.943C199.537 20.0476 199.863 20.1767 200.214 20.3367C200.478 20.4536 200.755 20.5889 201.069 20.7243C201.536 20.9273 202.084 21.1426 202.742 21.2902C203.406 21.444 204.169 21.5301 205.092 21.5301C206.187 21.5301 207.061 21.4009 207.799 21.1979C208.353 21.0441 208.814 20.8534 209.22 20.675C209.527 20.5397 209.798 20.4105 210.057 20.2936C210.45 20.1214 210.813 19.986 211.275 19.8753C211.736 19.7707 212.29 19.6969 213.052 19.6969C213.951 19.6969 214.566 19.7953 215.076 19.9368C215.458 20.0414 215.784 20.1706 216.134 20.3305C216.399 20.4474 216.676 20.5828 216.99 20.7181C217.457 20.9211 218.005 21.1364 218.663 21.2841C219.327 21.4379 220.09 21.524 221.013 21.524V17.7099C220.115 17.7099 219.5 17.6115 218.989 17.47C218.607 17.3654 218.281 17.2362 217.931 17.0763C217.666 16.9594 217.389 16.824 217.076 16.6887C216.608 16.4857 216.061 16.2704 215.396 16.1227C214.738 15.9689 213.969 15.8828 213.046 15.8828C211.951 15.8828 211.078 16.012 210.34 16.215C209.786 16.3688 209.318 16.5595 208.918 16.7379C208.617 16.8732 208.34 17.0024 208.082 17.1193C207.688 17.2916 207.319 17.4269 206.864 17.5376C206.402 17.6422 205.849 17.716 205.086 17.716C204.188 17.716 203.573 17.6176 203.062 17.4761C202.681 17.3715 202.355 17.2424 202.004 17.0824C201.739 16.9655 201.463 16.8302 201.149 16.6948C200.681 16.4918 200.134 16.2765 199.476 16.1289C198.817 15.9751 198.048 15.889 197.126 15.889C196.037 15.889 195.157 16.0182 194.419 16.2212C193.865 16.375 193.404 16.5657 192.998 16.7441C192.696 16.8794 192.419 17.0086 192.161 17.1255C191.767 17.2977 191.404 17.4331 190.943 17.5438C190.482 17.6484 189.928 17.7222 189.171 17.7222C188.273 17.7222 187.658 17.6238 187.147 17.4823C186.766 17.3777 186.44 17.2485 186.089 17.0886C185.825 16.9717 185.548 16.8363 185.234 16.701C184.767 16.498 184.219 16.2827 183.561 16.135C182.897 15.9812 182.134 15.8951 181.211 15.8951V19.7092H181.223Z" fill="#00A5A7"/>
</g>
<path d="M217.666 0.367188H216.792L206.82 21.5354H208.567L211.828 14.6331H220.711L223.867 21.5354H227.41L217.672 0.367188H217.666ZM212.437 13.292L216.306 5.09789L220.071 13.292H212.437Z" fill="white"/>
<path d="M60.8896 3.34137C59.8684 2.46782 58.595 1.83419 57.0632 1.43432C55.5314 1.03446 53.7043 0.84375 51.582 0.84375H44.6797V21.5444H52.4063C54.3318 21.5444 56.042 21.2676 57.5369 20.7201C59.0317 20.1664 60.2867 19.4159 61.3017 18.4624C62.3168 17.5089 63.0858 16.3954 63.6148 15.1158C64.1439 13.8363 64.4022 12.4644 64.4022 11.0126C64.4022 9.48082 64.107 8.07207 63.5225 6.7802C62.9381 5.48833 62.0584 4.3441 60.8896 3.34752V3.34137ZM59.6654 14.9313C59.2225 16.0386 58.6196 16.9737 57.8568 17.7303C57.0939 18.487 56.1958 19.0653 55.1623 19.4467C54.1349 19.8342 53.0338 20.0249 51.8711 20.0249H48.1739V2.36939H51.8896C53.1199 2.36939 54.2518 2.5847 55.2853 3.00917C56.3188 3.43364 57.2108 4.03652 57.9613 4.80549C58.7119 5.57446 59.2963 6.49107 59.7084 7.56147C60.1206 8.63188 60.3359 9.80071 60.3359 11.0803C60.3359 12.5382 60.1145 13.8178 59.6715 14.9313H59.6654Z" fill="white"/>
<path d="M4.4819 0.84375H1V21.5444H4.4819V0.84375Z" fill="white"/>
<path d="M31.6591 15.9832H31.4991L17.9345 0.84375H15.9844V21.5383H17.5592V5.1992H17.6884L32.3727 22.0243H33.1847V0.84375H31.6591V15.9832Z" fill="white"/>
<path d="M136.141 21.5383H150.536V20.1972H139.623V10.9265H146.931V9.5854H139.623V2.18483H150.536V0.84375H136.141V21.5383Z" fill="white"/>
<path d="M172.651 12.4739C172.098 11.9817 171.47 11.5265 170.769 11.1082C170.068 10.6898 169.354 10.29 168.622 9.90857C167.896 9.52101 167.176 9.14575 166.475 8.77049C165.774 8.39524 165.146 8.00768 164.593 7.60781C164.039 7.20795 163.596 6.78348 163.264 6.32825C162.932 5.87302 162.766 5.38087 162.766 4.83952C162.766 4.45196 162.846 4.0767 163.005 3.70759C163.165 3.33849 163.411 3.00629 163.738 2.71101C164.064 2.41572 164.476 2.17581 164.962 1.99125C165.454 1.8067 166.026 1.72058 166.678 1.72058C167.416 1.72058 168.081 1.819 168.671 2.02201C169.262 2.22502 169.779 2.51415 170.221 2.88941C170.671 3.26467 171.052 3.71375 171.378 4.23665C171.698 4.75955 171.969 5.34396 172.172 5.9776L173.949 5.16556C173.697 4.38429 173.371 3.69529 172.965 3.10472C172.559 2.51415 172.067 2.00971 171.483 1.60369C170.898 1.19768 170.221 0.890089 169.453 0.680929C168.684 0.471769 167.81 0.367188 166.832 0.367188C165.749 0.367188 164.789 0.50868 163.953 0.791661C163.116 1.07464 162.409 1.4622 161.837 1.95434C161.265 2.44648 160.828 3.03705 160.532 3.70759C160.237 4.38429 160.09 5.11635 160.09 5.90993C160.09 6.7035 160.256 7.39865 160.582 8.00768C160.908 8.6167 161.338 9.17036 161.867 9.6625C162.396 10.1546 163.005 10.6037 163.688 11.0036C164.371 11.4034 165.066 11.7849 165.774 12.154C166.481 12.5169 167.176 12.8799 167.859 13.249C168.542 13.6119 169.145 13.9995 169.68 14.4117C170.209 14.8238 170.64 15.2729 170.966 15.7712C171.292 16.2633 171.458 16.8293 171.458 17.4629C171.458 17.992 171.341 18.4595 171.101 18.8594C170.861 19.2592 170.541 19.5976 170.148 19.8744C169.754 20.1513 169.305 20.3604 168.807 20.5019C168.308 20.6434 167.804 20.7111 167.293 20.7111C166.617 20.7111 165.977 20.6126 165.38 20.4158C164.783 20.2189 164.236 19.9359 163.75 19.5668C163.264 19.1977 162.833 18.7487 162.464 18.2196C162.095 17.6905 161.8 17.0877 161.584 16.411L159.727 17.1738C159.997 17.9428 160.348 18.6256 160.772 19.2285C161.197 19.8252 161.714 20.3358 162.31 20.748C162.907 21.1663 163.596 21.48 164.377 21.7015C165.159 21.923 166.051 22.0275 167.047 22.0275C168.278 22.0275 169.354 21.8737 170.277 21.56C171.2 21.2463 171.981 20.8218 172.602 20.2866C173.23 19.7514 173.697 19.1239 174.005 18.398C174.319 17.6721 174.472 16.9031 174.472 16.0788C174.472 15.3529 174.306 14.6946 173.974 14.1041C173.642 13.5135 173.199 12.9721 172.645 12.48L172.651 12.4739Z" fill="white"/>
<path d="M123.112 15.9832H122.952L109.388 0.84375H107.438V21.5383H109.012V5.1992H109.142L123.832 22.0243H124.638V0.84375H123.112V15.9832Z" fill="white"/>
<path d="M95.3365 5.66551C94.8443 4.87194 94.2538 4.15218 93.5648 3.50625C92.8758 2.85416 92.1129 2.3005 91.264 1.83297C90.4151 1.37158 89.5046 1.00863 88.5265 0.756409C87.5483 0.504186 86.521 0.375 85.4506 0.375C84.3802 0.375 83.3528 0.504186 82.3747 0.756409C81.3966 1.00863 80.4861 1.37158 79.6433 1.83297C78.8005 2.29435 78.0316 2.85416 77.3426 3.50625C76.6536 4.15833 76.0568 4.87809 75.5709 5.66551C75.0787 6.45909 74.7035 7.30803 74.4389 8.22465C74.1744 9.14126 74.0391 10.0948 74.0391 11.0791C74.0391 12.5862 74.3344 14.0073 74.9188 15.3299C75.5032 16.6526 76.3152 17.8152 77.3364 18.8118C78.3576 19.8084 79.5695 20.5897 80.9598 21.1618C82.3501 21.7339 83.845 22.023 85.4506 22.023C86.521 22.023 87.5483 21.8939 88.5265 21.6355C89.5046 21.3771 90.4151 21.008 91.264 20.5282C92.1129 20.0483 92.8819 19.4762 93.5648 18.8118C94.2538 18.1474 94.8443 17.4092 95.3365 16.5972C95.8286 15.7852 96.21 14.9116 96.4745 13.9827C96.7391 13.0538 96.8744 12.088 96.8744 11.0852C96.8744 10.0825 96.7391 9.14126 96.4745 8.2308C96.21 7.31419 95.8286 6.45909 95.3365 5.67167V5.66551ZM92.3098 15.047C91.9899 16.2527 91.5224 17.2985 90.8949 18.1843C90.2674 19.0702 89.5046 19.7592 88.5941 20.2513C87.6837 20.7435 86.6379 20.9957 85.4506 20.9957C84.2633 20.9957 83.1867 20.7496 82.2763 20.2513C81.3658 19.753 80.603 19.0702 79.9817 18.1843C79.3603 17.2985 78.899 16.2527 78.5852 15.047C78.2715 13.8412 78.1177 12.5186 78.1177 11.0791C78.1177 9.63955 78.2715 8.34768 78.5852 7.16039C78.899 5.9731 79.3603 4.95191 79.9817 4.09066C80.603 3.22942 81.3658 2.56503 82.2763 2.09134C83.1867 1.61766 84.2448 1.38389 85.4506 1.38389C86.6563 1.38389 87.6837 1.61766 88.5941 2.09134C89.5046 2.56503 90.2736 3.22942 90.8949 4.09066C91.5224 4.95191 91.9899 5.9731 92.3098 7.16039C92.6297 8.34768 92.7835 9.65185 92.7835 11.0791C92.7835 12.5063 92.6235 13.8351 92.3098 15.047Z" fill="white"/>
</g>
<defs>
<clipPath id="clip0_3398_1542">
<rect width="227" height="22.1463" fill="white" transform="translate(0.5)"/>
</clipPath>
</defs>
</svg>
