<svg xmlns="http://www.w3.org/2000/svg" viewBox="0 0 937.39 396.91"><defs><style>.cls-1{fill:#11878d;}.cls-2{fill:#07384c;}</style></defs><g id="Layer_2" data-name="Layer 2"><g id="Layer_1-2" data-name="Layer 1"><path class="cls-1" d="M795.52,362.68c-21.27-10.56-62.65-63.15-105.59-69.7s-55.41,8.91-93.23,17.42-79.53,11.33-100.79-2.67C466.27,288.19,475.26,260,435.3,260.2c-20.95.12-44.23,3.26-80.62-25.26s-45.86,7.2-70.59-7.46S224.91,144.3,176.71,144.3s-61.22,17.3-127.4-6S91.07,396.91,91.07,396.91h729S833.21,381.38,795.52,362.68Z"/><path class="cls-2" d="M289,164.67c-.58-1.23-5.94,3-9.91,1.94.14-.44.83-2.06-.05-1.74-3.67,1.27-3.63,1.19-3.69,1.45s.55.67.54.94c-.2.48-4.33,1.12-10.22,2.25,6.58-7.53,8.45-6.79,16.15-9.39a.36.36,0,0,0,.2-.51c-1.28-2.34-4.06.8-4.5-1.89,5.2-2.32,4.89-1.81,4.49-2.95-.12-.34-.12-.25-3.52,0-.24-2,3-3,1.86-5.88a.35.35,0,0,0-.29-.22c-.77-.19-4.23,6.84-5.83,6.64,2.24-6.94,2.85-7.9,2.17-9.81a.36.36,0,0,0-.61-.11c-2.56,3.15-2,9.89-10.64,11.18.62-2.69,2.9-4.8,2.49-8.18a.35.35,0,0,0-.54-.26c-3.89,2.45-3.15,8.16-7.1,10-.09-7.38,0-7.25-.39-7.31-3.6-.5,1,3.69-7.61,16.56a8.53,8.53,0,0,1-8,3.92c.06-.14,4-8.17,2.27-8.55-.36-.07,0-.42-4.88,7.36-1.86.56-3.65.72-5,1.65-7,4.82-7.64,7.57-11,9,2.92-6.17,5.22-6.91,7.22-13.65,2.38-8,8.31-5,12.19-10.82,5.2-.21,7.51,2.19,13.2-8.06.58-1-1.46-.12-3.32.58,0-.23-.11-.74-.13-.89a25.2,25.2,0,0,1,8.2-4.27c12.2-4.36,3.87-11.13,11.62-12.53s5.54-2.95,5.17-2.91l-6.14.64.93-1.74c.43-.24,0-.94-.39-.68a3.27,3.27,0,0,0-2.95,2.21c-6.68,14.1-1.26,8.27-17.9,15.81a2.22,2.22,0,0,1,.25-.69c6.25-8.75,3.95-14.29,6.49-17.45,2.9-3.59,5.77-4.06,14.53-7.14,3.53,1.92,5.3,1.8,8.13-.52.31-.25.43-1-2.79-.43-1.52.29-3,.56-4.28-.8,8.08-4.47,7.42-3.6,6.8-5-.2-.41-.11-.3-6.86,2,2.82-7.44,2.82-7.13,2.52-7.36-.65-.48-3.27,2.19-4.7,6.67-.85,2.65-1.53,4.76-5.89,5.37l2-4.62a.35.35,0,0,0-.56-.4c-2.83,2.52-4.46,6-8.09,7.14-.38-10.84,6.44-12.64,10.94-16.41a.36.36,0,0,0-.32-.62c-11.26,2.89-13.69,8.63-16.19,26.88-.81,5.89-4.07,10.15-7.54,14.64-.09-8.59,6-11,2.43-17.48-1-1.87-.86,4.89-2.46,7.83-5.35,9.84.55,17.41-10,22,0-2.71,3.91-4,3-7.45-.54-2-10.6,13.33-11,15.49-.69,3.3-2.4,5.58-4.21,8-8.08,10.8-2.93,12-9.46,18.66-8.65,8.84-8.18,10.75-9.89,31.65-2.41-2.88-2.42-6.46-2-9,2.34-13.56-.27-11.73,1.62-16.69,17.28-45.19,16.74-34.7,30.38-52.89,10.91-14.54,6.44-27.48,15.51-30.08A15.48,15.48,0,0,0,262.08,102c.91-.46,1.84-.9,2.75-1.32,8.07-3.77,10.33-7.38,9.86-8-.9-1.08-7.92,5.14-12.29,6.13-.42-2.2-.11-2.39,1.7-3.52,5.17-3.24,12.56-11.21,12.47-11.42-.3-.63-4.1-.13-6.88,3.73-1.36,1.88-2.9,4-8.09,5.18-.58-5.16,2.66-11.65,5.36-12.13,3.53-.63,5.09-3.78,4.65-4.21-.24-.24-.11-.19-4.7,1.79l-.19-.18c3.64-8.86,3.52-7.67,2.29-8.32-.38-.2-.26-.15-4,4.8-.7-6.29-.61-6.16-.85-6.29s-2.58.55-2.16,4.32a4.81,4.81,0,0,1-.13,2.49c-3.85-3.95-3.2-3.76-4.22-2.93-.35.28,0,.51.91,1.91,3.66,5.54,7,5.47,1.89,9.07-1.24-.82-3.1-2.21-2.7-1,3.57,10.57,1.58,1.53.87,13.46-.22,3.58,2.08,14.22-9.39,16.65,5.58-13.36,7.42-14.29,6.83-14.83-2-1.83-9.45,12-9.54,12.14-3.26-2.41-2.2-5.1-.75-8.77,1.91-4.84,2.17-7,7-9.28,3.45-1.62,3.64-3.62,3.29-3.91s-6,2.1-8.48,4.52c.81-1.75,6.21-8.87,4.8-9.52-.36-.17-.19-.2-4.16,4.8-.18-2.19,0-3.36-1.32-1.8.06-4.56.18-4.64-.2-4.74-.66-.17-.89-.3-1.06,0-.39.64-1.25,1.37-1,2,.78,2.69,1.68,13.84-2.05,18.88-2.95,4-.63,7.24,2.06,11,1.68,2.36-.5,2.21-1.65,6-2.56,8.32-4.15,19-12.45,27.89-7,7.57-6.94,7.8-7.83,8.14,0-3.91.28-4.5,8.5-15.15s3.15-13,7.89-20.95a15.82,15.82,0,0,0,1.14-3.12c.12-.33-.18-.44-.51-.62s-.39,0-2.9,3.17c-.48-4.29-.37-4.3-.8-4.31-3.74,0-.59,8-2.17,12.05-3.53-7.11-3.3-6.88-3.66-6.83-.78.11-.79,3.46,1.06,7.5,3.06,6.63-.56,9.39-10.32,21.44,1.82-8.34,2.87-11.42,1.62-15.55-2.76-9.08,5.81-13.44,12-26.65,6.79-14.46,12.55-15,.92-11-3.6-7.15,9.71-6.06,8-11.76a.35.35,0,0,0-.38-.25c-2.76.31-3.61,3.91-6.3,3.86,5.53-12.08,5-12.52,7.69-12.44,4.39.14,7.4-3.73,6.91-4.28s-3.12,2.27-6.11,2c4-7,3.92-6.13,2.79-6.9-.4-.28-.36-.1-3.89,4.9-.23-2.23,1.77-4.16.22-6.6a.36.36,0,0,0-.63.06L243.09,65c-.47-2.7-.15-2.49-1.43-2.47-.72,0-1.69,8.74-1.77,9.44-1.1,9.69-3.46,6.19-6.43,8.52-.35.28-.56.34-.51.62.51,3,3.2.6,3.83,1.82-3.81,6.49-6.21,9.34-4.05,12.91.72,1.19-.92,8.82-2.44,11.34-2.45,4-5.27,8-7.88,11.82a6.25,6.25,0,0,1-.8-3.15c.39-10.72.83-17.1,5.34-23.69,6.26-9.14-1.26-12,2.5-16.81,4.9-6.23,5-6.57,4.76-10.58-.3-4.49,1.15-4-.85-4.38-.46-.08-.26-.23-2.53,7.35l-3.23-4.45a7.07,7.07,0,0,1,.88-1.76c1.65-2.61,1.16-4.32.69-4.42-.31-.06,0-.39-5.44,7-1.47-3.4,1.89-6.43,2.18-10,0-.5-1.77-1.53-4.14,1.69.19-5.82.53-5.1-.92-5.33-.38-.11-.31,0-2.32,5l-3.39-2.66C220.36,42.9,227.48,37,225.78,36c-.71-.43-6.85,5.82-7.43,6.42-2.62-5.71,4.54-4.12,4.33-12.47-.07-2.61-1.88,4.06-5.9,5.42-.63-1.28.06-2,.93-2.84,1.78-1.77,1.5-2.86,1.19-3a6.1,6.1,0,0,0-2.59,1.39c-.9,1.4-2.28,1.87-4.27,2.08,3.51-5.41,3.57-5.27,3.2-5.55-1-.78-.34-1-4.52,3.54,0-1.22.56-5.85-.49-4.61-3,3.52-4.13,4.26-3.14,5.28,3.62,3.74-2.32,5.89-.15,10.57.16,1.46-2.23,4.81-6.26,5-2.07-6,1.13-5.27,1.7-11.55.32-3.39,1.39-4.06-.87-7-.64-.86-.74.84-1.34,4.27L198,27.92c-.27-.61-2.76.18-1.86,3.54.82,3.1-1.11,2.08-.65,3l2.82,5.46c-1.73,5.4,1.26,7.87.21,19.94-.74,8.59-.57,6.58-4.46,15.44-4.55-9,3-16.55-2-22.67a.35.35,0,0,0-.62.17c-1.54,8.94-3.28,14.82-.87,23.73,1.31,4.84-.6,8.62-5.84,11.55a27.88,27.88,0,0,1,1-11.65c1.64-6.22-2.31-10.31-1-14.86,1.89-6.52,2.83-4.39,2.66-10.33a.35.35,0,0,0-.67-.14c-6,13.1-5.27,9.79-4.64,17.44-3.22-4.92-4.87-7.94-5-6.42-.57,9.82,6.4,10,4.88,18.59-.92,5.18-.73,11.61-1.16,12.54-2.32,5-2.23,10.36-3.91,15.4-.81,2.41,1.66,9.68,3.44,13,2.06,3.82,3.42,6.36.53,28.58-1.87-2.1-3.85-3.56-4.18-5.88-1.05-7.37,0-10.8.69-13.07.94-3.07-.13-4.25-.54-4.28-.76.18-2.55,2.38-2.65,5.39-.2,5.95-2.52,13.28,4.12,20.13,2.77,2.85.65,5.39,1.85,17.57,0,.16,2.74,16.82,10.25,23.8,4.63,4.3,5.63,10.14,6.78,16.9,2.79,16.31,3.94,13,10.7,29.55,3.06,7.48-.33,13-7.09,15.5,8.45-10.64,4.93-16.5.51-23.86-9.19-15.33-3.09-14.23-20-36.6-7.33-9.72-2.71-15.57-5-23.1-2.54-8.24-1.51-18.17-4.46-27.3-1.29-4-1.25,20.33.06,25s.79,9.28,1.09,14.37a35.46,35.46,0,0,1-2.5-5c-5.18-11.74-8.61-9.6-5.2-27.35,2.86-14.94,1-10.49,3.9-19.46a27.17,27.17,0,0,0,1.39-5.33c.88-4.93,2.84-7.39,1.21-12.9-2.81-9.43,4.76-8.58,2.85-20.81-.47-3-1.07-6.4,0-9.25,3.5-9.07-7-12.94-5.27-10.65,4.51,5.89,3.6,7.93,2.54,10.29-3,6.76,2.56,8-2.28,20-1.49,3.7-2.08,5.58-1.81,9.24.3,4,1,13.16-2.66,18.23-1.06-2.58-1.79-5.2-1.32-10.71.8-9.31-8.36-10.52-6.3-8.4,7.45,7.63-.36,3.2,4,21.25,1.18,4.87,2.39,9.89,1,13.4-2-4.55-6.74-20.67-6.79-20.84-4.27-14.47,12-29.47,8.07-40.83-2.07-5.95.52-8.25,1.51-15.73.67-5,5-5.18,7.74-12.74,1.75-4.77,2.38-4.57,5.67-5.46,6-1.62,5.07-1.37,10.59-7.17a.35.35,0,0,0-.16-.58c-4.73-1.45-4,5.39-13.43,4.94-.56-4.18-1-3.9,8.42-10,5.2-3.4,5.17-3.28,5.06-3.63-.54-1.82-9.66,3.18-10,3.33-.72-3.22,1.07-4.86,6.41-8.81.93-.68-2.18-2.28-7.45,3-2.23,2.23-1.79,5-1.43,8-2.36,2.23-5.75,4.12-4,8.39,0,.84-3.29,9.22-6.7,13.2-3.27-17.34-3.28-11.62.92-28,1.27-4.93,1.43-4.41,8.38-9.78,4-3.07,5.12-7.14,3.22-11.49.06-.63-1-.48-.72.12-.58,6.15-2.1,9.56-8.47,10.93-1.33-4.28,6.11-6.72,5.49-11.44-.17-1.29-2.44,2-4.18,4a6.63,6.63,0,0,1,3-6.29c2.17-1.46,1.67-3.08,1.27-3.23-.24-.09-.14-.08-3,1.83-.45-2,1.78-4,.33-6.47-.57-1-1.1,1.35-2.29,4.71a8.16,8.16,0,0,1-.65-2.69C168.94.86,167.47-.19,167,0,163.54,1.66,163.43,4.52,163,8c-2.42-2.66-2.38-2.76-2.69-2.65-.52.18-1,2.78,3.82,6.67,3.74,3,3.26,3.23,2.93,6.94-.85,9.67-.67,7.61-4.61,19.76-.4-.28-.78-.5-.84-.65-4.29-10.81,3.12-14.13,2.83-17.25-.78-8.39-6.75-11.22-6.49-9.74.37,2.19,4.32,5.81,3.35,9.08-.79,2.64-2.33,5.14-3.59,7.69-3.72-2.2-2-5.9-4.37-10.14-1.24-2.2,1.68-5.76-.19-10.15-.61-1.44-1.44,3.23-2.14,6.12-.75-2.46-1.21-4.78-3.21-6.67-.89-.82-.53.9.22,7.36L145,11.93a.35.35,0,0,0-.55.41c3.32,7.78,7.12,4,7.36,10,.38,9.33,5.37,3.2,9.33,31.5.89,6.36,1.33,5.81.76,6.43-4.11-6.9-5.86-8.67-6.4-18.67-.22-4.07-.39-7.29-3.87-9.41-1.81-1.09,1.74,6.11.11,10.55-4.25-2.21-5-4.1-5.68-6.1-1.63-4.43-4.14-5.54-3.88-4.46,2,8.65,4.81,10.58,7.06,12.12,5.56,3.83,1,4.51,9.8,19.26,6.77,11.36-.95,6.62,1.08,21.92.62,4.65,1.2,9-5,16.34,2-23.92,2.47-22.82.42-28-3.82-9.66,4.26-11-9.14-23.14-2.95-2.68-2.79-2.71-3.11-2.53-.67.38.66,3.82,3,5.44,9.09,6.23,2.63,11.72,6,23-6.82-5.9-6.56-6.9-5.79-9.88,1.53-5.88,1.32-6.88-1.68-8.17a.36.36,0,0,0-.46.48c3.25,6.64-4.56,8-.45,13.11,4.75,5.85,10,10.14,8.85,18.69-.86,6.54-2.42,5.74-.45,18.19a18.31,18.31,0,0,1,.09,2.89l-.16,0c-6.43-9.63-8.33-11.84-4.59-19a.35.35,0,0,0-.49-.47c-7.38,4.44-3.19,11.84.51,18.36,8.11,14.33-.72,6.27,11.42,39.11,3,8.19-2.65,11.69,4.64,26.18,9.42,18.71,7.25,12.5,10.73,18,0,.31.36.41,1.06,1.23-.18,0-.27.09-.49.25-.74-1.12-.71-1.12-.87-1.17-23.63-25.26-24.56-27.39-22.75-40.71,2.68-19.65-5-14.19-6-28.65-.75-10.55-5.42-11.44-4.95-27.45.16-5.27-1.32-10.17-2.39-15-1.14-5.13-1.23-4.78,1.78-14.45,2.63-8.44,2.65-8.28,2.4-8.51s-2.23.36-3.58,3.75c-.16.41-.31.8-.49,1.17-3.15-15.15,5.53-15.09.43-36.3-.12-.49-1.36-.25-1.37.18-.06,3.82-1.1,7.72,0,11.79,1,3.78-.93,8.94-2.17,12.35-3.75-6.26-6.29-9.17-4.82-13,1.29-3.41-.29-18.26-2-17.75-.33.1-.21-.18-.79,6.89-.72-5.49-.61-5.84-1.08-5.79-1.14,0-.78-.45-1.55,4.22-4.51-8.59-7-5.37,2.11,8.38,2.45,3.68-2.84,7.22,3.08,14.83,3.69,4.75,3.52,11.53,5.15,16.44a8.07,8.07,0,0,1-.46,6.37c-2.78-4-4.86-7.45-5.93-11.5-3.2-12.09-4.45-7-4.47-20.07,0-5.27-3.81-9.94-4.49-9.6-.88.45,1.93,5,1.14,9a47.05,47.05,0,0,1-5-7.14c-6.51-10.61-7.26-6.56-7.56-11.3-.21-3.31-1.8-4.62-2.26-4.42-.28.12-.18-.19-.74,6.68-.54.09-.2.23-2.18-.87,0-8-.06-8.13-3-10-1.51-1,.94,3.43.12,6-1.61-1.74-5.5-5.24-6.22-4-.18.3-.34,0,4.89,6.37l-.09.13c-8.92-1.56-7.84-1.87-8.25-.28-.1.37.21.38,1.11.86,3.08,1.66,5.52-.34,13,3.86,2.12,1.2,5.89.53,7.92,7,3.2,10.19,9.49,11.24,9.13,14-.5,4.05,1.34,5.15,3.25,11.34-9.35-3.84-13.5-14-14.22-21.72-.46-4.93-3.83-7.42-3.76-6.07.11,2.37,1.64,4,1.65,6.29l-4.12-3c-1.34-1-1.81-3.13-4-4a.36.36,0,0,0-.48.4c1.37,7.42,7.84,7.22,9.07,11.61l3,10.69a10.18,10.18,0,0,1-2-1.54C98.38,38.34,97.22,37.37,97.21,33.47c0-4.61-3.7-6.12-4.13-5.72-.23.21-.23-.09,1.52,6.21-2-1.18-3.5-2.8-6.44-3.07-1.16-.05.3,1.24,2.3,3.43l-3.21,1.87c-.89.52,2.83,2.88,3.49,3.11,2.32.82,5.24-.37,7.34,2.15,11.47,13.8,11.19,15.65,17.84,18,10,3.52,10,6.79,12.57,11,5.45,9.08,6.85,8.62,8.53,24.71-4.62-4.94-1.82-9.82-11-15.35s-5.35-14.69-10.2-15.88a.35.35,0,0,0-.43.44c2.31,7.35,1.56,9.5,4.86,13.93a35.23,35.23,0,0,1-3.47-1.51c-7.45-4-2.89-15.06-11.89-16.73a.35.35,0,0,0-.38.5c1.33,2.73,4.14,4,3.84,7.16-2.47-2.84-5.88-6.75-5.3-10.62,1.73-11.51-9.79-4.65-12.23-15.09-.13-.56-1.42-.15-1.37.28.22,2.13-.4,4.69,2,6.31,7.52,5,9,2.42,8.34,7.44-.7,5.56.81,7.3,10.58,20.07.77,1,5.93,4.36,10.13,7.44,5.74,4.22,5.77,7.72,6.89,14.81,3.1,19.57,13.5,11.55,14.34,27.33.37,7,2.17,8.92,4.49,14.37-10.92-10.06-6-16.51-19-26.38-15.87-12.05-1.48-19.25-13.15-28.07-2.64-2-3.79-1.26-3.39-.72,3.89,5.24,7.66,7.41,5.24,15.52-1.76-2.27-3.34-4.53-5.21-6.57-5.62-6.1-5.24-11.36-9.23-16.78-5.53-7.53-3.63-5.07-6-11.12-3-7.63-10.54-8.58-10.79-7.66-.21.74,5.62,2.35,7.68,8.34-6.26-.53-5.31.15-4,1.39.86.79,1.07,1.09,3.45,1.16,5.34.17,1.69,3.08,6.85,9,1,1.17,1.86,2.12,1.81,3.62-5.16-.46-10-4.55-14-7.84S82.18,70.66,81,66.64c-2.49-8.3-5-9.22-2.16-14.89.8-1.6,4.76-2.3,6.23-4.83C86.75,44,80.76,49,77.5,47.8c2.56-1.95,7.2-5.08,6.27-7.33-.42-1,.08-1.32-.38-1.51a.36.36,0,0,0-.42.12,13.45,13.45,0,0,1-4.85,4.53c-.29-2.7-.11-5.26-2.09-7.37a.35.35,0,0,0-.6.2c-.43,3.25.64,1.42-.52,5.64-2.41-3.65-2.49-3.9-2.71-3.86s-.29.11-.46.29c-.93.93-.61,1,1.79,6.78-3.78-.31-3.85-.42-4-.09C69.21,46,73,47.72,73.78,48c1.6.59,1.88.7,1.45,6-2.21-.36-5.19-4.47-6-3.67s6.88,8.24,6.85,13.47c-4.3.41-4.92-5.82-9.48-6.2-4.74-.39-4.6-.45-4.75-.17s1.16,1.86,2.27,1.79c5-.32,2.24,5.1,11.12,8.27C80,69.2,72.91,70.79,95.6,83.92c11.29,6.54,7.49,8.35,11,10.92,2.72,2,3.76,5.12,5.79,7.7,3.27,4.17,6.32,8.82,10.29,12.34,17.88,15.87,10.33,18.72,18.22,24.82,3.07,2.37,4.7,5.76,6.47,9.19,1.09,2.12-.18,5.68-.87,7.8-9.23-7-11.08-28.1-22.07-35.08-3.83-2.43-11.73-10-9.27-13.31.21-.28-.28-1.49-.77-1.25-2.81,1.37-3.06,1.36-2.87,1.78,7.45,16.39,8.18,11,14.09,18.43,10.26,12.85,7.31,20,16.14,30.29,7.18,8.32,4.18,9.38,11.33,18.7-1.88-.45-2.55-2.77-10.65-3.47-5.53-.49-5.49-1.77-5.9-8-1.5-23.42-8.43-10.92-11.18-26.24-.79-4.41-1.53-8.58-8.94-9.92a.36.36,0,0,0-.38.19c-.17.33.1.41,1.16,1.55,3,3.26,4.47,1.86,5.3,8.75,1.88,15.58,7.62,2.48,11.1,27.1-3.22-3-6-7.57-8.95-12.38-8.11-13.25-10.14-12.71-9.37-19.27s-.87-8.24-4.87-12.38c-2.08-2.14-1.94-2.12-2.21-2.06-.5.12-1.78,3.3,1.76,6.38,5.28,4.59-.84,9.33,3.6,15.9-.89-.43-1.06-.62-6.56-8.26-4.73-6.56-2.85-12.49-2.72-16.64.13-4.63-2-6.11-5.34-9.45,3.54-3.17,4-4.17,3.47-7.68-.19-1.36-1.88,2.06-2.45,3.08-3.84-5.31-.29-11.8-4.81-15.12-.26-.49-1,0-.65.39.35,3.16.68,7.7.85,12.75C84.88,86.7,87.46,82.68,80.87,80.81c-5-1.4-2.53-5.2-6.1-6-.5-.3-.88.43-.41.63,1.83,3,.87,6.76,7.2,8,1.93.39,2.15.74,7.08,12.26-5.83.73-7.75-1.58-10.61-5-3-3.61-3.14-3.62-3.42-3.49-2,1,4.62,8.33,5.14,9.26l-2,8.12c-1.65-4-4.09-7.27-6.87-10.73-1.1-1.37-1.07-10.52-1.67-10.68-.34-.08-.26,0-2.16,2.75,0-2,0-3.45-1.61-4.64-.63-.47-.58.42-1.14,4.38a10.76,10.76,0,0,1-.87-2.35c-1.23-4.26-3.56-4.83-3.92-4.54-.86.68,2.13,5.41,1.78,8.42-4.1-4.36-3.37-4-4.45-3.38-.36.22-.3.09,1.66,4.48-2.19-.86-5.16.74-5.07,1.29.22,1.39,13.38-.21,20.37,13.18,5.69,10.9,9.12,17.48,16.3,19.71,12.22,3.8,12.45,16.89,23.8,25.31,5.08,3.78,7.79,9.43,11.14,15.07-12.54-6.77-11.15-12.75-21.5-18.11-2.83-1.47-1.07-8-14.63-12.95-.32-.11-.4.11-.76.79-.59,1.15,6.53,2.56,10.61,11.05-4.69,0-16.44-4.26-18.74-14.83-1.52-7-3.53-6.9-5.29-10.88-3.43-7.78-3.08-9.85-6.55-12.64-2.87-2.31-1.23-2.82-2.35-7.17-.28-1.11-.26-1.74-.71-1.66-1.25.18-.9-.35-1.27,4.21-1.55-.82-2.23-2.28-2.95-3.82-2.37-5.08-7.41-7.32-3.43-1.1A9.72,9.72,0,0,1,59,99.12c-5.59-3.43-4.7-3.27-5.66-2.31-.29.29-.26.15,2.57,4-1.41,1.46-3.9-.45-6.43,1.34a.35.35,0,0,0,.18.64c3,.25,5.5,1.23,7.42.42,5.88-2.47,7.21,2.53,9.26,4,2.56,1.83,2.5,3.22,6.06,13.56-6.84-.6-4.26-13.29-13.78-15.84-2.12-.57,2.65,3.7,3.95,5.81C64.28,113.58,65,122.34,72,124c6.23,1.45,3.15,8.26,9.22,14.6,9.75,10.19,20.44,7,25,13,11.77,15.44,13.9,11.3,23.64,19.58,14.35,12.22,16.61.52,24.91,15.62,2.51,4.54,4.27,7.26,7.65,9.22,6.49,3.77,8,8.43,14.71,12.26,4.11,2.35,9.2,9,9.24,9.87-12.59-9.95-11.54-8.78-13.44-10.89-5.34-5.93-8.62-9.59-15.16-10.5-15.46-2.14-10-16.47-20.91-17.05-1.92-.09,4.09,3.21,5,8.37-9.61-1.28-10.15-1-14.7-12.82-.44-1.15-.64-2.38-1.16-3.53-2.44-5.33-12.11-4.3-8.13-2.52,6.35,2.84,5.09,2.27,8.86,14.54-12.74-7.83-20.57-26.52-30.52-27.29-1.65-.11-4.3.44-3.93,1.28.51,1.15,5.72-2.52,12,8.57-5.85-1.34-11.42-1.67-14.95-6.69a.35.35,0,0,0-.63.28c1.37,6.14,6.61,6.22,16.4,8.94,4.76,1.32,5.39,2.41,8.69,6.94-1.7.23-3.82-.62-5.28,1.81-.85,1.43,5.67-1,10.24,4.84-1.95-.49-3.75-1.06-5.49-1.61-11.07-3.52-11.12-1.45-15.61-8.46-4.21-6.55-11.26-3.66-9.34-3.06,11.25,3.47,3,9.64,17.54,12.75,11,2.34,9.82,2.38,10.79,9.11-6.11,1.37-4.56-7.74-10.54-6.07-.73.21.28,1.13.9,1.83,3.3,3.71,2.24,6,9.17,7,5.93.79,3.89,4.77,20.42,7.21,12.75,1.88,15.07,3.11,22.65,8.45,15.78,11.11,20.05,5.32,26.48,13.8,17.48,23,5,22.78-4,33.43-1.45,1.71,1.07,5,3.39,3.44,6.47-4.51,15.38-9.52,15-17.39,1.2,7.09-4,10.78-8.23,13.81-3.67,2.61-7.09,5.58-2.64,4.9,2.53-.39,1.85.95,2.49,1,.14,0-.07.06,3.6-1.27,1.38,1,1.52,1,2.76.78a23.86,23.86,0,0,0,13-7.4c9.48-10.1-6.28-31.74,1-38,5.22-4.52,7.12-11.07,7.93-12.52,3.76-6.69,5.68-4.37,11-9.59,7.78-7.63,5.49-8.52,12.21-11.68,4-1.9,6.1,4.17,12,1.82a.35.35,0,0,0,.06-.63c-1.92-1.22-4.24-.82-5.14-3.24,10.5.87,12.4,1.2,15.44.65,5.48-1,4.58,6.78,12.34,2.17a.35.35,0,0,0,0-.57c-2-1.63-4.6,1.22-5.82-1.57,6.67-5.87,6.48-5.55,6.33-5.89-.42-.95-4.45,1.16-5.58,1.87-3.91,2.44-1.89,1.26-16.74,1.36,8.75-6.84,10.59-6.65,13.56-6.81,7.42-.4,6.67-2.93,10.12-3.19,4.95-.37,5.25-.4,9.15-3.64A.35.35,0,0,0,289,164.67Zm-30,7.26c-8.44,8.57-16.09,4-23.3,11.51-4.39,4.56-5.78,9-12,12-8.29,4-6.79,10.51-12.89,16.91,1.5-9.54,1.61-12,24.37-35.44,4.39-4.52,9.25,1.74,18.59-6.19,3.52-3,3-8,8.29-9.91,3.93-1.44,7.69-3.25,11.61-5,1.27,1.88.94.83,1.78,4.28C267.87,161.5,269.72,161.07,259,171.93Zm-12.85-17.82c.73-3.14,3-3.27,7.88-4.64C253.11,153.07,250.59,154.53,246.18,154.11Zm-9.06-57.82c-.09.92-.7,1.35-1.56,1.82C235.87,97,236,96.27,237.12,96.29ZM209.85,37.2c.31-1.26,1.2-1.39,2.33-1.56,2.61-.39,1.74-1,3.41,1-2,4.89-2.27,2.94,1.68,8-5.12,8.22-5.85,7.45-15.48,11.67.13-5.24.31-5.39,2.2-7C211.92,42.32,208.44,42.91,209.85,37.2Zm16.57,28.41c2.31,3.48,3.12,6.43,0,9.3C225.79,71.64,224.46,68.63,226.42,65.61Zm-5,.44c-3.72-1.64-3.68-1.75-3.91-1.41-1.35,2,5,2.53,5.73,8.44,1.6,12.31,5.91,11.43-3.55,24.75-1.37-3.1.29-5.85,1.1-8.88,1.35-5.07-3.32-10.16-4.21-9.38s2.76,2.9.65,11c-2.57,9.76,3,16.09,1.06,21.07-.54,1.39-1.15,3,.55,11.78-7.24-5.64-3.91-20.85-9.49-20.53-1.56.08,2.52,2.92,1.8,7-2.27,12.8,7.77,12.93,7.49,25.59-.15,6.54-2.82,9.81-.72,16.54s-1,10.27-7.94,26c-3,6.81-1.61,4.54-5.37,12.38-.13-5.79,4.92-18.28,7.08-22.47,2.29-4.43,1-12.58.35-12.65s-1.35,2.86-1.37,3.08c-1,9.51-4.68,9.73-6.51,19.36-.8,4.21-2,8.3-3.1,12.65-3.56-3.58.94-31.62,4.69-35,8.3-7.46,7.75-8,6.7-18-.17-1.61-1.86,2.21-2.39,3.67-1.2,3.34,2.68,5-6.11,11.1,2-9.87,2-9.14,2.31-11,1.23-8.88,10.63-9.4,3.9-17.58a.36.36,0,0,0-.62.14c-.61,2.71,1.24,5.5-1.21,7.49-1.19-2-2.53-11.92-1.67-14.75,1.44-4.71-.29-7.23-.87-7.1-.32.06-.2-.1-1.45,5.63-8.31.34-.56.72-.27,5.47,1.49,25.34-2.17,11.86-4.28,35.85-2.83-5.07-4.3-14.11-1.47-23.9,1.39-4.81-4.12-8.43-4.74-7.61s4.23,3.45.86,10.9c-1.34,3-1.33,15.05,3.28,26,2.35,5.6-1.39.15-1.26,24.78.05,9.55,5.72,6.65,4.43,23.13-2.92-5.23,1.92-7.71-6.12-16.52-6.47-7.1-6.29-6.88-4.54-23,.23-2.09.91-4.18,1.13-6.32.6-6-2.75-5.66-1.4-16,.54-4.18-3.1-7.78-3-6.24.13,2.85.65,5.43.25,7.8-2.11,12.51,4,3.77-1.6,25.78-3.76-10.47-1.42-19.5,0-40.93.31-4.81,2.06-5.29,13.45-15.82.77-.72-.35-1.54-6.55,2.33a11.66,11.66,0,0,1,1.3-2.51c9.61-12.43,8-19.07,14.69-21.79,4.5-1.85,5.9-5.63,5.36-6-.28-.21.15-.36-7.54,4.37-.5-11.82,8.51-13.14,8.18-17.82a.36.36,0,0,0-.58-.25c-2.78,2.32-7.18,5.46-8.74,8.94-3.37,7.52-1.47,7.61-3.28,12-7.48,18.1-11.34,15.21-15.95,27.45-4.18-11,6.33-15.44,3.88-23.62-3.94-13.15,8.66-4.88,13.93-19,.67-1.79,1.63-2,4.52-6.73.23-.38-.31-.64-.65-.9s-4.73,3.9-6.62,7.36c-1.53,2.81-3,5.46-10.56,6.88a.87.87,0,0,1,0-.19c4.77-5.93,5.81-13.28,10.9-19.72.75-1,2.16-1.47,3.48-2.2.72,3-2.87,3.34-3.73,6.29a.36.36,0,0,0,.48.43c10.21-4.38,12.79-5,11.58-6-.18-.15,0-.12-6.32.81l-.18-1.51c6.89-3.3,6.89-3,6.6-4.34-.1-.46-.11-.33-5,.66,1.2-2.71,1.27-2.7,1.1-2.93s-1.4-.14-2.09.65a19.85,19.85,0,0,1-4.48,3.46c-1.64-6.9,5.85-6.61,11.85-11.16C218.73,59.63,221.69,62.62,221.46,66.05Zm-40.89,41.64c1.76-4.63,2.14-11.32,4.7-13.76,1.22,7,1.44,14.43-4.14,21.11C180.47,112.38,179.57,110.31,180.57,107.69Zm-54.76,83.95c-2.66,1.07,3.26,2.31,4.77,5.45-7.1-2.31-12.59-3.7-12.31-11.26a32.39,32.39,0,0,1,10.09,2.52c13.33,5,13.4,3.43,19.58,7.8,14,9.9,7.55-3.8,24.91,16.66-2.78-.64-5.36-2.41-8.54-4.58C145,195,137.47,200,133.82,196.11,132.26,194.42,127.45,191,125.81,191.64Zm50.74,4.93c4.34,5.06,4.67,4.81,4.83,5.74C177.2,197.53,176.72,197.41,176.55,196.57Zm-6.29.16c.46.53,1,1.09,1.49,1.71A2.11,2.11,0,0,1,170.26,196.73Zm-.82-.94a3.2,3.2,0,0,1-.37.19c-6.4-5.09-9.4-6.68-10.68-12.51C163.61,190,162.82,188.25,169.44,195.79Zm-11.73-13.74c-.72-.55-1.32-1.07-1.35-2C157.09,180.65,157.68,181.17,157.71,182.05Zm9.1-179.82c.83,2.64.79,2.95-.91,4.34C165.79,4.83,165.87,3.43,166.81,2.23Zm2.05,11.11-3.61-3.18,2.92-1.74.84,4.85ZM138,110.19c-5.61-3-4.07-10.87-12.07-27.09,4.49,1.63,4.05,11.21,9,16.07C137.15,101.31,136.73,101.55,138,110.19ZM75.71,43.93l-.21-.62A.72.72,0,0,1,75.71,43.93Zm13,58.46c.08-1.09-3.45.11-2.31,3.85,1.77,5.84,7.07,2.9,8.54,14.31-10.53-2.66-15.87-11.33-12.81-23,8.38,1.3,8.36,1.23,9.34,3.5,5.48,12.73,10.43,6.9,9.12,21.37-2-.88-2.54-2.88-3.26-5.37C94.19,106.09,88.28,109.17,88.74,102.39ZM67.91,91.66c-.38.19-1.09-.18-3.25-1.91l2.46.21Z"/><path class="cls-1" d="M558.71,271.87v0a26.05,26.05,0,0,1-2.58-2.66c2.85.84,5,3.14,8,4a.57.57,0,0,0,.67-.79c-.59-1.14-1.77-1.69-2.65-2.58l1.12-.44a.57.57,0,0,1,.61.13c3.39,3.44,5.7,6.34,10.24,6.91a.58.58,0,0,0,.59-.81c-5.29-11.07-.83-7.59-13.27-17.61-3.6-2.9-5.38-2.36-8.41-4.32,1.45-.56,2.73.47,4.2.48a.56.56,0,0,0,.54-.69c-.11-.46-.22-1-.37-1.6,1.37.49,1.84,1.89,2.92,2.49a.54.54,0,0,0,.77-.26c.48-1.22-1-2.38-2-5.39l.42-.21c5.88,8.24.3,4.89,9.34,12.13a.57.57,0,0,0,.92-.56c-.58-2.48-2.92-6.34-5.62-9-3.22-3.15-4.52-4.05-9.67-5.28a.57.57,0,0,1-.33-.89c.26-.34.57-1,1.11-.74s5,2.41,4.46.4c-.6-1.1-1.16-2.1-1.71-3.1l.24-.14c3.7,4.16,3.94,4.57,4.49,4.76a.57.57,0,0,0,.74-.47c.32-2.27-1-4.08-1.74-6a.57.57,0,0,1,.45-.76c1-.15.79.3,1.34-.63l1.41.4c-.08,3-.17,4,1.63,9.45.19.74,2.12,6.06,3.31,4.47,1-2.31-.18-6.65-.52-8.54l.93.25a.59.59,0,0,0,.59-.19l1-1.26c.17.39.34.6.32.78-.61,4.78.22,5.91.16,7.25-.29,7.31,2.93,20.31,11.22,30.87,4,5,4.65,6.89,5.45,7.41a.56.56,0,0,0,.85-.38c.12-.65.19-2.4.44-9.94.1-2.93-4.44-7.78-7-9.25-.53-.31-1.21-.77-.8-1.71,1.21.49,1.83.76,2.19.89a.57.57,0,0,0,.77-.54c-.15-3.72-3.73-5.49-3.49-5.86.63-1-.64-1.69-.3-2.68h.68l.72-1.56.28,0c.14,2.6-.24,3.62,1.76,4.87a.56.56,0,0,0,.85-.38c.16-.82.3-1.58.44-2.34.64-.06.46,1,.7,1.45l1-.05c-.09.71-2.4,2.24-.22,7.06.88,2,2.22,4.69,4.07,5.26a.55.55,0,0,0,.61-.23c1.59-2.44,1.13-12.45,1.13-12.54-.35-15.13-11-19.52-14.6-28,.47-.59,1.09,1.06,1.53,1.4a.56.56,0,0,0,1-.41,6.12,6.12,0,0,1,0-2.85c.4.49,1.17.77,1.22,1.42-.22,2.48-.06,4.93,2.5,6.63-.14-.69-.28-1.38-.44-2.22,1.44.91,1.47,2.64,2.4,3.82.48.58,1.13-.22,1.55-.48a7.58,7.58,0,0,0,1.93,4.57.57.57,0,0,0,1-.4c0-1.16-.29-2.3-.37-3.48a.57.57,0,0,1,1.1-.23c.19.52.3,1.06.47,1.58a.57.57,0,0,0,1.09,0c.63-1.89.39-3.93,1.05-5.95l.52.95c.5.76,1.25-.17,1.77-.45-1.22,3-2.58,5.87-2.5,9.2.08,3,.17,5.93,1.69,8.63a.57.57,0,0,0,.8.19c2.38-1.61,3.41-7.47,3.31-10.21s.5-5.36,1.23-9.22c.49.25.92,1,1.5.61l2.57-1.79.26.23c-3.92,5.52-4.52,5.07-4.25,13.13a.57.57,0,0,0,1,.3c.89-1.43,1.39-3.13,2.46-4.57a.57.57,0,0,1,1,.35v.78a.57.57,0,0,0,.73.54l1.69-.5c-1.1,1.14-2.26.73-4.23,4.42-6.1,11.4-6.11,10.33-7.56,19.16,0,.53.16,2.11,1.09,1.6,4.49-2.94,3.85-5.61,5.76-7.69.36,1.59-.34,2.74-.73,4a.57.57,0,0,0,.92.59c.77-.68,1.16-1.89,2.43-1.82.31,3-8.68,5-10.34,13.14-1.48,7.17-2.21,5.29-1.29,13.63.53,4.84.66,5.43.92,6.29a.57.57,0,0,0,1,.24c4.72-4.8,6.11-5.7,7.3-13.35.72-4.61,2.61-6.13,6.52-14.85,6.73-15,4.68-15.43,4.68-23l1,2.08c1.2-1.79.1-4,1.58-6,.17,1.22.3,2.09.43,3.06l1.17-.18a12.8,12.8,0,0,0-2.28,9.6c.5,1.41,2-.48,2.15-1.34,3.17-8.53,2.68-9.79,6.91-11,0,1-2.74,1.41-2.93,3.64a.57.57,0,0,0,.71.57l1.49-.37c-1.78,1.89-3.74,3.2-4.14,6.44a.57.57,0,0,0,.83.58c1.86-1,3.22-2.49,5-3.71-.62,2.93-7.43,4.78-11.15,13.94a28.92,28.92,0,0,0-1.63,5.75.56.56,0,0,0,.7.63c2.1-.68,5.5-4.76,6.9-7.55,2.14-4.23,1.92-5.26,3.15-5.88v1.35a.57.57,0,0,0,.83.5c1-.58,1.53-1.73,2.61-2.18,1,1.46-4.42,4.22-5.85,9.41-.09,1.42,2.12.39,2.64,0a63.92,63.92,0,0,0,5.71-3.62c3.71-2.73,1.73-6.19,3.11-7.33.21,1.32.4,2.53.59,3.78a.58.58,0,0,0,.92.36c1.25-.94,1.84-2.53,3.41-3.44-.46,1-.86,1.8-1.25,2.62a.57.57,0,0,0,.59.81c.65-.12,1.23-.55,2-.65-.7,1-.15.58-1.82,1.47-5.44,2.87-7.41,3.81-8.1,4.53a.57.57,0,0,0,.58.92l2.39-.68c-.27.32-.48.57-.66.8a.56.56,0,0,0,.33.91l.87.17c-2.75,2.67-5.45-2.34-20.64,9.39-4.33,3.35-5.11,8.68-6.76,14.85,0,.19.08.43.14.76,1.89-.92,3.7-1.78,5.5-2.68,3.92-2,2.43-8.1,4-11.47.33.71.27,2.21,1.26,1.78a.75.75,0,0,0,.17-.14.56.56,0,0,1,1,.57c-.45,1.21-1.21,3.2-2.5,6.67a.56.56,0,0,0,.4.76c1.58.2,4.56-3.57,5.48-5.79,2.09-5.1,2.36-5.72,3.64-6-.76,2.54-2.57,4.55-2.6,7.19l.87.26-3.69,4.46a.57.57,0,0,0,.54.92c2.23-.38,3.88-1.74,5.75-2.52,2.31-1,4.1-2.66,6-4.24a2.73,2.73,0,0,1,.25.23l-.57,1.12,1,1.09,2.66-1c-.26,2.8-7.69,2.84-9.8,5.6h1.36c.53.08.93.67,1.3.9a.57.57,0,0,1-.21,1c-2.87.68-11.69-1.29-24,8.22-.46.36-4.59,5.68-5.07,6.34a3.79,3.79,0,0,0-1,2.48.57.57,0,0,0,.63.63c4.47-.48,25.52-7.69,26.9-8.15,3.16-1.07,2.29-3.93,4.27-5,.58.89-.4,1.56-.3,2.39a.58.58,0,0,0,.45.47c1.19.31,1.79-1.35,3.22-1.33-1.19,1.65-1,1.53-1.74,2.12a.57.57,0,0,0,.26,1c1.63.23,2.57-1.27,5.14-2.45a.57.57,0,0,1,.61.95c-.61.51-1.38.9-1.71,1.79l1,.28c-2.89,1.72-6.21.73-9.21,1.51a.57.57,0,0,0,.08,1.11,10.91,10.91,0,0,1,4,1l-3.4.47a.57.57,0,0,0-.15,1.08c.87.39,2,.25,1.94,1.11-.28,2.69-5.42-1-14.39.7a5,5,0,0,0-1.46.91c1.8,1.68,3.41.63,8.81,1.49l0,.43-2.9.8c2.17,1.34,3.15.23,5.2,1.56-1.45.88-2.82-.15-4.1.07s.26,1.54-.78,2c-.81.43-1.33-.17-1.78-.68-3.53-4-11.32-3.39-16.29-1.75-5.67,1.89-4.15,2.56-4.77,9.56-.59,6.66-13,4.61-11.83-7.92.15-1.69-2.14-1.63-3.32.29-2.65,4.33-3.2,5-3.69,5.48a.57.57,0,0,1-.78,0,1,1,0,0,0-.8-.3.57.57,0,0,1-.28-1.07A3.63,3.63,0,0,0,579,317a.57.57,0,0,0-.41-.88c-4.1-.38-6,1.25-9.39,3.06-.66-1.4-.66-1.42.44-1.91.61-.26,1.33-.41,1.36-1.05a.57.57,0,0,1,.43-.54c7.09-1.41,9.36-1.36,9.39-3.53a.54.54,0,0,0-.26-.46c-2.2-1.33-6.85.51-9,1.83-5.29,3.26-4.9,3.63-8.13,4.77a.58.58,0,0,1-.75-.44.61.61,0,0,1,.43-.86c.66,0,4.72-1.62,3.16-2.63l-1.39-.54a4.37,4.37,0,0,1,2.44-.35c2.08-.05,3.48-1.15,3.36-1.77a.9.9,0,0,0-.75-.49c-2.32.32-4.73.24-6.87,1.45a4.52,4.52,0,0,1-3.07.93c-1-1.66,1.77-1.37,4.57-3l-3-.34c.43-.8,0-.65,8.73-.68.33.2.19.12.17-.18-2-2.12-4.6-1.67-7.26-1.94a.56.56,0,0,1-.11-1.1.57.57,0,0,0,.16-1l-1.91-1.14c2.87-1,5.21,2.65,6.87,1.3.87-.72.67-2.79-1.92-2.68a2.06,2.06,0,0,1-1.23-.32l1.11-.63a.57.57,0,0,0,.13-.88l-2.06-2.2c1.72.08,2.65,1.22,3.7,2.06,4,3.21,2.15,6.43,5,6.32,1.35-.05,1.44-.66,1.14-2.05a.56.56,0,0,1,1-.4c1.1,1.93,2.44,4.09,13.05,3.43a.58.58,0,0,0,.49-.79c-2.45-6.19-14.22-10.86-17.74-10.78-5.45.11-10.7-.88-14.65,2.57-1.29,1.13-2.67,4.55-3.25,4.88V301.8a.57.57,0,0,0-.53-.56l-.87-.07c.28-.77-.1-.32,3.59-2.83a.57.57,0,0,0-.28-1c-2.6-.22-4.78,1.13-7.08,1.29l-.14-.38c1.32-.68,1.33-.69,1.92-1a.57.57,0,0,0,0-1l-2-.76,0-.33c9.31.55,8.41.71,16.87-2.05a.57.57,0,0,0,.13-1,8,8,0,0,0-5.34-1c-2.17.22-3.88,1.6-5.84,2.68.21-.44.34-.74.49-1.05-1.55-.95-3.38,1-4.63-.17-.32-.3-1.21-.25-2.72-.25,1.6-1.73,1.53-.16,9.74-2.41a2.66,2.66,0,0,0,1.69-1,.57.57,0,0,0-.37-.83,7.53,7.53,0,0,0-2.79.21.57.57,0,0,1-.39-1c.78-.5.31-1.11-.83-2.15a.57.57,0,0,1,.61-.94c.58.28,1.43.77,2.86,1.52a.56.56,0,0,0,.83-.45c0-1.62-2.54-1.66-2.22-3.44,3.52.44,2.61,4.68,12,8.46,12.75,5.14,12.59,4.42,20.28,8.84a.56.56,0,0,0,.84-.61c-1.08-4.4-6.94-17.28-18.21-18.47-5.25-.56-4.89.16-9.75-.95l1.83-1.18-.58-1c1.3-.57,3.22,1.63,5.78,1.18a.58.58,0,0,0,.3-1c-1.52-1.48-7.3-3-8.74-3.36-3.2-.86-4.05-1.19-4.13-2.43l3.2.88C558.88,272.3,558.71,271.87,558.71,271.87Z"/><path class="cls-1" d="M423.8,174.05c-2.49-2-4.68,0-6.2-.12-3.06-5.88-.9,4.45-6.69,2.11-4.15-1.68-4.22-4.23-1.52-5.42,2.95-1.31,3.44-2.36,5.29-6.28,1.27-2.71,1.38-2.69,1.19-3.07-.31-.6-2.49-1.27-4.78,3.12-.58,1.11-1.18,2.27-2,2.67-2.23,1.08-4.79,2.78-5.2,6.34-3.1-.6-5.84-1.07-8.55-1.73-12.41-3,11.34-8,9-19.28-.11-.57-1.48-1.52-1.88-.7-1.33,2.7-.87,6-4.33,7.09-2-7.61-1.83-7.41-2.3-7.55-.72-.22-2.18,1.11-1.4,5.13,1.68,8.66-5,6.68-5.84,11.11-.61,3.24,2.19,4.47,4.29,9.47-2.36,1.1-3.42,1.21-6.67.79-.62-3.72-.8-4.17-1.17-5.11-6.11-15.4,10.65-8.23,7.45-20.11a.64.64,0,0,0-.51-.45c-1.38-.21-2.22,5.68-6.17,6-3.09-4.45-2.14-4.1-4.74,4-1.21,3.78-1.25,4.07-.35,10.12-5.56,1.41-10.79,2.47-15.5,5.83,4.05-8.87,14.38-4.21,13.12-16.07-2-19.05,5.57-8.39,20.67-18a.61.61,0,0,0,.26-.71c-.62-1.9-7.54,2.83-11.58,2.11l1-1.58a.62.62,0,0,0-.74-.91c-9.08,3.54-9.93,3.08-12.7,8.33-.92-1.71-1-2.15-1.56-2.09a.62.62,0,0,0-.53.43c-1.14,3.78-2.73,5.63-5.39,6.24-1-3.94-.89-4.17-1.54-4.15s-.7.92-.93,2.47c-.5,3.39-.68,4.57-10.87,9.75-1.26-2.6-.51-3.2.89-4.33,3.92-3.17,3.26-5.41,3.64-9.18,8.91-4,11.25-4.68,14.1-8.3,1.35-1.72,1.91-1.93,4.74-2.27,7.59-.91,12.33-8.58,6-5.07-2.6,1.45-5.07,2.82-8.37,2.09,3.49-6.4,3.47-1.11,5.06-8.4.81-3.75-.28-6.46-2.41-.82-1.64,4.31-3.5,2.19-6,9.31L371,134.06c3.22-4.39,6.85-9.21,2.81-13.49a.63.63,0,0,0-.69-.14c-1.47.63,1.91,5.68-2.82,8.55-1.48-3.28-1.59-4.33-3.45-4.4-2.76-.1,3.77,13.33,2,16.46-1.19,2.13-5,3.87-12.18,5.64-2.26-3.27,7.66-8.74,2.69-11.55-.57-.32-.75.08-1.44,1.32-5-9.2-3.38-5.69-3.7-12.63-.11-2.29-5.61,2.42-1.13,9.71,2.17,3.52,1.23,5.4-.34,8.52-3.72,7.42,7.86,10.79-1.24,15.72-6.73,3.64-.46,17.51-3.54,21.7-5.83-15.75-6.28-15.49-.9-18.92.95-.61,2-1,1.56-1.71-3.66-6.24-4.32-5.51-1.19-8.76,7.89-8.21-7.67-9.39-7.66-11.41,3.52-2.38,5.11-4.56,3-8.43-.24-.43-.94-.56-1.23.45-1.14,4.05-3,4.28-3.42,3.87-.81-.71-.25-4.54-.92-7.89-.33-1.63-2.48-.45-2.76,8.19-6.62-2.14-6.65-1.9-6.14-7.25.22-2.23.84-4-.91-3.4-1.45.5-.56.67-1.61,3.61-3.63,10.15,6.17,5.39,12.23,15.66.74,1.26,5.26-2.27,7.94,2.64-7.32,7.16-13.49,6.07-11.63,20.07-3.76-2.57-7.78-5-8-7.53-.36-3.86,5.51-4.86,3.93-9.45-1.79-5.18-.9-7.59-1.66-9.79-1.42-4.17-3.5,2.38-1.82,8.81,1.53,5.82-7.36,5.61-2.59,12.91,9.26,14.18,22.68,8.78,10.34,29.23-10.67-10.33,7.31-15.73-12.4-27.49-8.9-5.3,6-18.43-3.16-22.91-2.23-1.09.92,3.95-.53,6.69-5.49-1.63-5.6-3.87-4.27-8.53,2.37-8.27-.77-7.6-3.22,1.31-2.66,9.7,7.14,6.78,5.6,14.56l-.53,2.65c-2.75-3.58-7.54-3.07-10.56-5.1,2.38-7.2.24-6.47-9-7.63a.62.62,0,0,0-.62.91c1.67,3.11,5.19,1.75,6.58,3.32-1,3.94-2.13,5.23,2.68,7,6.18,2.24,9.07,2.14,7.17,6.29a12.89,12.89,0,0,1-1.57-.46c-9.93-3.33-10.18,2.06-13.82.22-7.8-4-3.66-16.42-10.59-17.13a.62.62,0,0,0-.5,1c4.41,4.4.05,7.55,6.59,16.67,2.61,3.65,5.92,2.87,10.12,2.3,2.36,11.53,11.5,12.78,14.13,18.66,4.9,11,14.79,5.33,16.23,17-17-6.79-9.3-15.9-22.48-17.57-5.5-.7-9.09-2.92-11-6.8-3.1-6.33-5.59-6.76-13-8-2.27-.39-4.62-1.06-6,1-1.72,2.52,12.34.34,15.31,7.61,5.72,14,22,6.26,22.48,18.5-11.22-4.89-10.82-2-15.62,2.09-2.24,1.91-2.35-.46-2.33-4.37,0-3.22-1.31-6.27-2.58-5.63-.47.24-.34.61-.34,2.44-9.84-6.25-9.51-6.42-10.05-5.92-1.12,1-1.09.49,1.13,4.13-.94.07-10.28.31-9.67,2.43.17.61.27.49,6,.25,9.39-.39,10.11-.42,11,4-6.61,1.72-3.93,1.51-11.12-.23-2.56-.67,1.76,7.08,12.07,3.35,2.07,2.57,3.74,3.77,5.23,3.77.8.32,2.26-.83,3.7-2.65,5-6.29,4.45-1.17,23.21,5.32,6.7,2.32,7.1,2.46,11,16.7a20.62,20.62,0,0,1,.4,4.28c-4.64,0-4.72-.39-5.45-4.37-.76-4.19-1-4.81-8.41-17.19a.62.62,0,0,0-.67-.29c-.58.14-.46.42-.76,3.76-9.4-2.52-9.91-3.17-12.81-1.4-6.73,4.09-4.36,9.77-9.44,8.93-8.43-1.42-8.71-8.4-16.15-5.53-4.56,1.78-5.87,2.42-7.54.81-2-2-4.92-4.12-6.28-1.64-.33.62.13.72,2.71,2.92,3.18,2.71,4.5,3.83,7.17,2.84,6-2.22,8-2.81,10.34-.17-4,3.52-4.13,3.76-4,6.48.07,1.5,1.9-.3,2.55-.88,2.64-2.34,4.77-4.22,9-1.84-8.46,4.53-9.39,12.91-7.35,12,2.79-1.28,2.26-6.83,7.62-8.5h0c6.51-2,8-5.33,9.26-8,3.82-8.25,14.79-2.71,18.09,2.55-28.05,3.8-24.69,11.52-23.12,10.09,5-4.63,18-5.6,23.47-6,.7-.06,1.45.09,1.68,1.57,1.1,7-6,2.16-12.85,12.09a.62.62,0,0,0,.31.93c3.47,1.23,8.32-8.81,21-3.61-.27.91-3.08,10.91-2.47,11.63.27.31-.28.22,10.52.22.9,0,.4-.76,1.54-6,1.3-5.94,2.7-11.66,1.47-17.67,7.15,5.27,6.13-1.52,12.55,6.83,1.87,2.43,3.8,4.94,6.38,4.29,1.4-.35-.66-1.89-4.59-7-1.87-2.45-2.91-3.81-5.1-4.94,2.09-1.57,3.68-.87,5.8.07s7.12,2.28,7.33.79c.25-1.9,1-1-7.95-4.79,7.46-7.13,8.81-9.34,12.36-5.42,3.82,4.18,7.78,8.17,9.66,13.46,1.47,4.14,6.55,5.84,7.16,4.9.85-1.33-4.74-4-4.63-7.94,9.94-2.27,7.76-2.32,11.7,1.37,8.22,7.69,4.65,11.82,12.8,10.12a.62.62,0,0,0,.16-1.15c-2-1-4.32-.39-5.08-4.22-.42-2.15-2.91-4.92-4.32-6.43,4.17-2,4.33-1.75,7.25,1.76,3.42,4.19,6.3,3.43,5.42,2.22-4-5.57-5.53-9.39-9.86-8.25s-5.49.95-8.18-1c7-9,14.19-4.43,14.42-6.87a.61.61,0,0,0-.4-.64c-19.74-7.07-13.15,22.51-33.28.36-10.38-11.42-22.58,19.58-31.64,4.75,0-.07,0-.29,0-.24,6.56-7.93,13.21-11.67,20.94-11.76,9.35-.1,16.62,1.45,22.89,4.88,6.9,3.78,5.9-1.77,19.71-1.65,5.79-.1,10.81-10.77,3.79-4.9-3.68,3.07-4.4.82-14.69,3.56-10.65,2.85-11.4-8-37.31-5.53,4.77-4.57,9.24-10,13.75-9.55,5.86.6,8.47,10.83,13.36,9.63,4.63-1.15,5.32-4.2,9.63-1.75,4.95,2.81,8.74-1,14.9-5.16.29-.2.44-.37-.15-1.41-.38-.67-.75-.41-5.14,2.15-4.57,2.67-6.23,3.64-11.71.43,1-.89,5-3.75,2.88-3.91-3.79-.29-4.81,3.4-8.85,6-4.42,2.87-3.1-3.59-11.23-7.94,6-2.46,13.32-.05,18.2-4.92,2.45-2.45,6-1,9.18.59,6.54,3.35,7.27.49,12-1.72C421.68,176.28,424.86,174.88,423.8,174.05Zm-72.35,19.39a19.76,19.76,0,0,1,2.31-1.25c13-5.35,11.35-12.92,24.67-16,2.39-.58,3.43-.87,3.72.45.57,2.62-4.27-.94-18.83,11.74C359.28,191.9,356.56,194.26,351.45,193.44Zm13.07-31,2.32,7.41c-2.37,2.57-6.32,6.86-6.8,10.37-.59,4.34-2.86,6.66-7.78,7.82C356.57,167.48,347.17,175.6,364.52,162.4ZM351.25,199l-7.89,7.38C340.12,199.76,348.24,193.89,351.25,199Zm-12.49-3.31c-.26-4.24,3.2-8.26,9.66-11.19C348.78,191.21,345,192.45,338.76,195.7ZM367.51,161l7.09-4.88c1,9.41,1.8,11.28-4.19,12.2C369.68,167.2,370.05,168.07,367.51,161Zm-24,20.78v-3.95l1.51,3.05Zm-2.39-28.14,3.07,4.06c-5.62,2.58-5.39,7.37-4.74,11.86C335.91,165.4,336.55,156.69,341.1,153.59Zm-17.71,30.82c-4.78-5.38-4.33-6.38-9.16-9.46-7.14-4.55-8.15-8.18-8.81-11.65C312.94,164.07,323.12,175.81,323.39,184.41Zm-6.54-23.29c3.58,6,13.7,7.64,11.36,16.61-.44,1.71-.82,3.35-1.19,4.92a23.21,23.21,0,0,0-8.58-15C315.58,165.24,315.37,164.67,316.85,161.12Z"/><path class="cls-2" d="M480.23,378.72s-.44-4-1.22-10.89c-.37-3.48-.84-7.72-1.2-12.62s-.59-10.46-.44-16.56c.06-1.53.09-3.08.19-4.67s.19-3.2.39-4.85.34-3.31.64-5c.14-.84.28-1.69.41-2.55s.34-1.71.51-2.58.35-1.73.56-2.6.45-1.74.68-2.62c.11-.44.23-.88.34-1.32s.25-.87.38-1.31l.78-2.57q1.61-5.16,3.28-10.54c2.18-7.11,4.39-14.41,5.5-22,.13-.95.25-1.9.37-2.85l.19-1.42c.05-.41.09-1,.13-1.44.08-1,.18-2,.24-2.94l.15-2.87a47.94,47.94,0,0,0-.73-11.34,51.86,51.86,0,0,0-1.51-5.53c-.61-1.87-1.25-3.79-1.83-5.73s-1.09-3.92-1.53-5.9l-.32-1.48-.15-.74,0-.19,0-.15v-.09l-.06-.37-.48-2.91a90,90,0,0,1-.34-23.49,109.86,109.86,0,0,1,1.77-11c.71-3.51,1.5-7,2.12-10.32.31-1.67.61-3.33.9-5,.15-.81.31-1.62.43-2.42s.22-1.61.33-2.4c.22-1.59.44-3.15.65-4.69.05-.38.1-.76.16-1.14s.05-.76.08-1.14l.18-2.24c.11-1.48.23-2.93.34-4.35l0-.53c0-.12,0-.34,0-.5v-1.06c0-.7,0-1.39,0-2.07,0-2.73.09-5.32-.08-7.73s-.2-4.67-.33-6.77-.28-4-.39-5.77c-.21-3.49-.37-6.23-.49-8.1s-.16-2.86-.16-2.86l.49,0,.29,2.85c.19,1.86.46,4.59.82,8.06q.27,2.61.6,5.76c.19,2.1.35,4.38.55,6.82s.26,5,.35,7.75l.06,2.08c0,.35,0,.7,0,1a5,5,0,0,1,0,.56l0,.54c-.07,1.44-.13,2.92-.2,4.42,0,.76-.06,1.52-.1,2.29,0,.38,0,.77,0,1.16l-.12,1.16c-.16,1.56-.33,3.15-.5,4.76-.09.81-.17,1.63-.26,2.45s-.24,1.64-.35,2.47c-.25,1.66-.5,3.34-.76,5.05-.52,3.41-1.2,6.84-1.81,10.41a106.63,106.63,0,0,0-1.38,10.77,86.19,86.19,0,0,0,1,22.5c.19,1,.37,1.93.56,2.89l.07.37,0,.09c0,.08,0,0,0,0l0,.17.17.71.34,1.41c.47,1.87,1,3.73,1.6,5.57s1.28,3.7,1.95,5.6a57.38,57.38,0,0,1,1.79,6A50.81,50.81,0,0,1,497,264.68l-.12,3.08c0,1-.13,2-.19,3,0,.51-.06.95-.12,1.52l-.17,1.51c-.12,1-.23,2-.35,3a146.49,146.49,0,0,1-5.39,22.81l-3.22,10.52c-.25.86-.51,1.72-.76,2.57-.12.42-.27.88-.36,1.25l-.33,1.24c-.21.83-.43,1.65-.64,2.46s-.36,1.65-.53,2.46-.37,1.62-.5,2.43L483.9,325c-.29,1.59-.43,3.19-.63,4.75s-.29,3.12-.44,4.63-.17,3-.26,4.48c-.23,5.87-.07,11.29.19,16.1s.54,9,.81,12.49.5,6.22.62,8.09.19,2.87.19,2.87Z"/><path class="cls-2" d="M485.79,378.69l-.06-.66c0-.44-.08-1.09-.15-1.94-.11-1.68-.21-4.14-.25-7.27s0-6.93.28-11.29.77-9.27,1.61-14.59c.11-.67.21-1.34.32-2l.39-2.05c.26-1.38.52-2.79.87-4.21.62-2.83,1.46-5.78,2.32-8.71,1.75-5.81,3.68-11.91,5.53-18.23.91-3.16,1.88-6.36,2.72-9.62s1.65-6.56,2.43-9.9c.36-1.67.62-3.35.94-5,.14-.84.33-1.69.44-2.53l.3-2.56.31-2.56c0-.42.12-.85.14-1.28L504,273l.26-5.07-.07-2.64c0-.88-.14-1.65-.2-2.49s-.19-1.65-.32-2.49-.24-1.69-.42-2.54c-.61-3.37-1.45-6.77-2.17-10.18s-1.43-6.87-1.89-10.31c-.1-.87-.2-1.73-.31-2.59s-.12-1.73-.18-2.59c-.17-1.71-.11-3.43-.13-5.12a67.09,67.09,0,0,1,3.17-19.18c1.82-5.8,3.75-11.25,5.67-16.2s3.81-9.43,5.26-13.45a57.77,57.77,0,0,0,2.88-10.63,63.52,63.52,0,0,0,.76-7.08c.07-1.65.11-2.53.11-2.53h.49s0,.88,0,2.54a63.61,63.61,0,0,1-.42,7.2,56.94,56.94,0,0,1-2.52,11c-1.32,4.13-3.05,8.67-4.76,13.66s-3.43,10.43-5,16.26a63.91,63.91,0,0,0-2.4,18.45c.09,1.61.08,3.24.3,4.87.09.81.15,1.63.26,2.45l.39,2.46c.55,3.28,1.3,6.58,2.17,9.93s1.8,6.73,2.54,10.26c.2.87.35,1.77.51,2.66s.34,1.78.43,2.73.26,1.9.31,2.79l.14,2.64v1.44l0,1.36-.07,2.71a54.06,54.06,0,0,1-.42,5.4L508,281.3c-.1.89-.28,1.77-.41,2.65-.3,1.76-.55,3.52-.89,5.26-.74,3.44-1.43,6.88-2.32,10.2-.43,1.66-.81,3.34-1.28,5s-.91,3.24-1.37,4.84c-1.84,6.39-3.7,12.52-5.5,18.31a138.62,138.62,0,0,0-3.91,16.28c-.9,5.11-1.47,9.86-1.8,14.09s-.56,7.92-.64,11-.06,5.43-.05,7.06c0,.81,0,1.42,0,1.84l0,.63Z"/><path class="cls-2" d="M484.79,378.27s.08-.72.22-2.07.42-3.29.79-5.78.87-5.49,1.53-8.92,1.48-7.29,2.5-11.47q.78-3.13,1.69-6.51c.65-2.23,1.29-4.54,2.06-6.9,1.44-4.73,3.25-9.63,5.31-14.65l1.61-3.76,1.68-3.72c1.13-2.51,2.25-5,3.34-7.56a156.79,156.79,0,0,0,5.87-15.6,70.89,70.89,0,0,0,3-16.17,108.12,108.12,0,0,0-.31-16.13c-.48-5.24-1.1-10.42-1.42-15.33a90.07,90.07,0,0,1-.06-13.92,34.3,34.3,0,0,1,2.84-11.51,26,26,0,0,1,5.18-7.51c.44-.45.84-.89,1.25-1.27l1.19-1,1-.89.9-.67,1.64-1.24.3.4-1.55,1.31-.85.72-.95.93-1.1,1.07c-.37.4-.74.85-1.15,1.31a32.88,32.88,0,0,0-2.44,3.22l-1.15,2c-.35.71-.67,1.46-1,2.23a33.05,33.05,0,0,0-2.19,11.09,89.57,89.57,0,0,0,.68,13.57c.52,4.82,1.35,9.85,2.09,15.2a111.5,111.5,0,0,1,1,16.66,72.34,72.34,0,0,1-2.53,17.23,133.57,133.57,0,0,1-5.63,16.29c-1.05,2.62-2.15,5.2-3.22,7.73-.54,1.26-1.07,2.51-1.61,3.76L503.82,324c-2,4.86-3.65,9.65-5.11,14.25s-2.7,9-3.8,13.07-2,7.84-2.73,11.2-1.39,6.27-1.86,8.69-.82,4.33-1.06,5.62l-.34,2Z"/><path class="cls-2" d="M480.34,379.21s-.26-.71-.73-2.06-1.11-3.29-1.85-5.81-1.58-5.59-2.45-9.14-1.66-7.61-2.38-12.06q-.56-3.34-1-7c-.3-2.43-.5-4.94-.64-7.54a95.91,95.91,0,0,1,.41-16.41c.28-2.74.64-5.62,1.06-8.49s.92-5.74,1.46-8.63c1.06-5.78,2.3-11.56,3.07-17.27a64.62,64.62,0,0,0,.59-8.54,60.4,60.4,0,0,0-.65-8.43c-.11-.72-.23-1.44-.34-2.16s-.25-1.39-.38-2.09c-.26-1.38-.55-2.78-.86-4.15-.63-2.74-1.34-5.44-2.09-8.1-1.51-5.3-3.17-10.42-4.54-15.36A108,108,0,0,1,466,221.83a77.21,77.21,0,0,1,0-21.62c.18-1.29.36-2.44.55-3.43s.34-1.84.49-2.52c.3-1.36.45-2.09.45-2.09l.48.1-.32,2.1c-.11.68-.22,1.53-.33,2.52s-.24,2.14-.35,3.43a81.61,81.61,0,0,0-.27,9.27,75.19,75.19,0,0,0,1.31,11.91,106.45,106.45,0,0,0,3.64,13.72c1.57,4.81,3.44,9.84,5.2,15.15.89,2.65,1.74,5.38,2.5,8.18.39,1.4.75,2.81,1.09,4.25.16.72.32,1.45.49,2.17s.29,1.43.44,2.14a67.11,67.11,0,0,1,1,9.08,70.09,70.09,0,0,1-.3,9.17c-.62,6.07-1.82,11.9-2.73,17.61q-.71,4.29-1.26,8.49c-.38,2.8-.71,5.52-1,8.31l-.11,1-.05.52,0,.47-.15,2c-.06,1.33-.13,2.63-.15,3.93-.06,2.6,0,5.16.11,7.64.26,5,.72,9.69,1.35,14s1.36,8.28,2.09,11.77,1.42,6.52,2,9,1.17,4.42,1.54,5.73l.58,2Z"/><path class="cls-2" d="M480.44,379.46l-.23-.43-.63-1.25c-.54-1.08-1.3-2.69-2.18-4.76a130.9,130.9,0,0,1-6.12-17.6,117.31,117.31,0,0,1-2.62-12.22,99.1,99.1,0,0,1-1.25-14c0-1.22,0-2.45,0-3.7s.09-2.5.16-3.7c.13-2.44.33-4.93.52-7.42.4-5,.87-10,1.22-15a73,73,0,0,0-.1-14.64,77.21,77.21,0,0,0-3.17-13.89c-.71-2.23-1.46-4.42-2.23-6.55-.39-1-.78-2.14-1.17-3.12-.21-.52-.42-1-.62-1.54s-.44-1-.65-1.44c-1.8-3.88-3.77-7.54-5.28-11.07a68.47,68.47,0,0,1-3.47-9.87,65.84,65.84,0,0,1-1.55-7.91c-.1-1.1-.2-2.09-.28-3s-.09-1.59-.13-2.19l-.08-1.82.49,0s.07.63.21,1.8c.07.59.13,1.32.27,2.16l.48,2.89c.25,1.08.46,2.27.78,3.55s.68,2.67,1.17,4.11a65.46,65.46,0,0,0,3.9,9.44c1.66,3.36,3.77,6.85,5.83,10.76l.77,1.51c.23.5.47,1,.71,1.51.48,1.07.91,2.08,1.37,3.14.89,2.12,1.78,4.3,2.62,6.55a79.94,79.94,0,0,1,4.08,14.38,77.88,77.88,0,0,1,.81,15.47c-.18,5.12-.57,10.15-.82,15.1q-.18,3.72-.36,7.35c-.07,1.24-.1,2.4-.13,3.56s0,2.32,0,3.47A102.66,102.66,0,0,0,474,342.38c.64,4.19,1.45,8.14,2.35,11.75s1.84,6.89,2.76,9.78,1.79,5.38,2.55,7.41,1.42,3.62,1.86,4.69l.51,1.21.18.39Z"/><path class="cls-2" d="M479.94,380.22s-.1-.07-.37-.26-.68-.5-1.12-.88a33.58,33.58,0,0,1-3.68-3.5c-.72-.81-1.51-1.72-2.32-2.74s-1.68-2.14-2.45-3.43c-.41-.63-.82-1.28-1.25-2l-1.19-2.15c-.85-1.46-1.52-3.09-2.28-4.77-.4-.83-.7-1.72-1-2.62s-.66-1.82-1-2.75-.54-1.92-.81-2.91-.58-2-.78-3-.4-2.08-.61-3.13a30.87,30.87,0,0,1-.52-3.22l-.36-3.3-.18-1.68c-.06-.56-.05-1.13-.08-1.7,0-1.13-.08-2.28-.12-3.43,0-.58,0-1.15-.05-1.73s0-1.16.06-1.75c.11-2.29.21-4.61.32-6.95s.24-4.65.37-7c.09-1.19.07-2.32.07-3.47l0-3.44c.08-2.3-.14-4.59-.28-6.88l-.11-1.72-.06-.85c0-.29-.07-.57-.11-.85-.16-1.13-.32-2.25-.47-3.37a61.75,61.75,0,0,0-1.31-6.58,28.71,28.71,0,0,0-.91-3.17c-.33-1-.66-2.07-1-3.1a98.91,98.91,0,0,0-5.18-11.41c-1.9-3.4-4.14-6.52-6.16-9.42a59,59,0,0,1-5.06-8.34,28.47,28.47,0,0,1-2.41-7.17,21.85,21.85,0,0,1-.4-2.76c0-.4-.1-.77-.11-1.11s0-.66,0-.94c0-1.11-.05-1.7-.05-1.7h.5s.05.58.16,1.67c0,.27.06.57.09.91s.13.69.19,1.08a23.1,23.1,0,0,0,.58,2.65,28.49,28.49,0,0,0,2.71,6.75,57.87,57.87,0,0,0,5.39,7.82,115.54,115.54,0,0,1,6.83,9.32,100.22,100.22,0,0,1,5.94,11.48c.41,1.05.81,2.12,1.22,3.19a30.31,30.31,0,0,1,1.12,3.29,64.19,64.19,0,0,1,1.75,6.85c.22,1.16.45,2.34.68,3.51.05.3.11.59.15.89l.1.89.2,1.78c.25,2.38.58,4.77.6,7.19l.14,3.62c.05,1.21.11,2.43.05,3.59-.07,2.34-.13,4.68-.2,7s-.09,4.57-.14,6.82c0,.55,0,1.1,0,1.65s.06,1.09.08,1.64l.15,3.24c0,.53,0,1.07.09,1.59l.18,1.57c.13,1.05.25,2.08.37,3.1a29.32,29.32,0,0,0,.5,3l.54,2.91c.18,1,.48,1.87.71,2.79s.46,1.82.73,2.69.58,1.72.87,2.55a25.86,25.86,0,0,0,.89,2.43c.67,1.55,1.26,3.06,2,4.41.34.69.68,1.36,1,2l1.08,1.82c.66,1.2,1.42,2.22,2.07,3.22s1.35,1.81,2,2.57a40.29,40.29,0,0,0,3,3.29c.37.37.63.58.81.75l.31.26Z"/><path class="cls-2" d="M773.39,365.09c-46.58,11.31-101.77,22-142.72,3.32-23.11-10.56-39.82-29.89-67.68-31.54-15.88-.94-31.26,4.45-47.2,4.4-31.14-.08-52.86-19.54-75.95-33.54-32.21-19.54-75.53-30.6-118.95-30.38-22.76.12-48.3,2.67-65.87-7-16.93-9.36-18.73-25.9-26-39.78-16.91-32.24-65.34-51.4-111-66.53S24.54,133.13,0,103.18V396.91H937.39C909.15,396.91,827.67,351.9,773.39,365.09Z"/><path class="cls-2" d="M584,196.18c-7.93,2.4-7.42,7.52-12.36,6.77-2.91-.45-3.59-1.7-4.46-1.88-2.06-.42-2.49-.52-3.33-.66l1.14-.82c-2.33-1.14-2.4-2-1.83-3.63-3.68-.36-6.88,2.9-7.19,4.19a17.43,17.43,0,0,0-7.78,4.63,10.33,10.33,0,0,0-1.4,1.85c-1.56,2.32,5.13,5.47,7.47,6.12.44,1,3.37,3.51,6.63,4.14a9.86,9.86,0,0,1-1.43-3.54,11.07,11.07,0,0,0,5.57-1.12,9.74,9.74,0,0,0,6.83,1.41,4.8,4.8,0,0,1-3.58-3.29c2.24-2,4.5-4.9,7.11-1.7,2.2,2.69,3.74,5.09,6.26,5.94a2.63,2.63,0,0,0,2.24,0c1.08-.51-.14-2.1-1-2.85a5.55,5.55,0,0,1-2-3.62c-.32-2.76-1.29-6,2.24-9.88a8.74,8.74,0,0,0,1.56-2.17A3.37,3.37,0,0,0,584,196.18Z"/><path class="cls-2" d="M400.56,242.38c-7.93,2.41-7.42,7.53-12.36,6.77-2.91-.44-3.59-1.69-4.46-1.87-2.06-.43-2.49-.52-3.33-.66l1.14-.82c-2.33-1.14-2.4-2-1.83-3.64-3.68-.35-6.88,2.91-7.19,4.2-2.94.64-5.49,2.5-7.78,4.62a10.41,10.41,0,0,0-1.4,1.86c-1.56,2.31,5.13,5.46,7.47,6.11.44,1,3.37,3.52,6.63,4.15a9.86,9.86,0,0,1-1.43-3.54,11.28,11.28,0,0,0,5.57-1.12,9.74,9.74,0,0,0,6.83,1.41,4.8,4.8,0,0,1-3.58-3.29c2.24-2,4.5-4.91,7.11-1.7,2.2,2.69,3.73,5.09,6.26,5.94a2.66,2.66,0,0,0,2.24.05c1.08-.52-.14-2.1-1-2.85a5.6,5.6,0,0,1-2-3.62c-.32-2.77-1.29-6,2.24-9.88a8.93,8.93,0,0,0,1.56-2.17A4.39,4.39,0,0,0,400.56,242.38Z"/><path class="cls-2" d="M311.18,94.17c-5.26,1.59-4.92,5-8.2,4.49-1.93-.29-2.38-1.13-3-1.25-1.36-.28-1.65-.34-2.2-.43l.75-.55C297,95.68,297,95.08,297.36,94a5.18,5.18,0,0,0-4.77,2.78,11.51,11.51,0,0,0-5.16,3.07,7.49,7.49,0,0,0-.93,1.23c-1,1.54,3.41,3.63,5,4.06a7.48,7.48,0,0,0,4.39,2.75,6.59,6.59,0,0,1-.94-2.35,7.4,7.4,0,0,0,3.69-.74,6.42,6.42,0,0,0,4.53.93,3.2,3.2,0,0,1-2.38-2.18c1.49-1.32,3-3.25,4.72-1.13,1.46,1.79,2.48,3.38,4.15,3.94a1.73,1.73,0,0,0,1.49,0c.71-.34-.1-1.39-.66-1.88a3.7,3.7,0,0,1-1.33-2.41c-.21-1.83-.85-4,1.49-6.55a5.41,5.41,0,0,0,1-1.44A2.81,2.81,0,0,0,311.18,94.17Z"/></g></g></svg>