<svg xmlns="http://www.w3.org/2000/svg" viewBox="0 0 18.32 14.39"><defs><style>.cls-1{fill:#fff;}</style></defs><g id="Layer_2" data-name="Layer 2"><g id="Layer_1-2" data-name="Layer 1"><path class="cls-1" d="M15.67,0h-13A2.65,2.65,0,0,0,0,2.64v9.11a2.65,2.65,0,0,0,2.64,2.64h13a2.65,2.65,0,0,0,2.65-2.64V2.64A2.65,2.65,0,0,0,15.67,0Zm0,1.26a1.65,1.65,0,0,1,.32,0l-5.5,6.24a1.77,1.77,0,0,1-2.66,0L2.33,1.3a1.65,1.65,0,0,1,.31,0Zm1.39,10.49a1.38,1.38,0,0,1-1.39,1.38h-13a1.38,1.38,0,0,1-1.38-1.38V2.64a1.31,1.31,0,0,1,.11-.52L6.88,8.38a3.06,3.06,0,0,0,4.56,0L17,2.12a1.31,1.31,0,0,1,.11.52Z"/></g></g></svg>