<svg xmlns="http://www.w3.org/2000/svg" viewBox="0 0 35.38 35.38"><defs><style>.cls-1{fill:#fff;}</style></defs><g id="Layer_2" data-name="Layer 2"><g id="Layer_1-2" data-name="Layer 1"><path class="cls-1" d="M24.75,35.38H10.63A10.64,10.64,0,0,1,0,24.75V10.63A10.64,10.64,0,0,1,10.63,0H24.75A10.64,10.64,0,0,1,35.38,10.63V24.75A10.64,10.64,0,0,1,24.75,35.38ZM10.63,3.33a7.3,7.3,0,0,0-7.3,7.3V24.75a7.3,7.3,0,0,0,7.3,7.3H24.75a7.3,7.3,0,0,0,7.3-7.3V10.63a7.3,7.3,0,0,0-7.3-7.3Z"/><path class="cls-1" d="M24.2,21.73,25,16.68H20.12V13.39A2.53,2.53,0,0,1,23,10.66h2.21V6.35A27.2,27.2,0,0,0,21.26,6c-4,0-6.61,2.42-6.61,6.81v3.86H10.2v5.05h4.45V34h5.47V21.73Z"/></g></g></svg>