<svg width="52" height="52" viewBox="0 0 52 52" fill="none" xmlns="http://www.w3.org/2000/svg">
<rect width="52" height="52" fill="#05384B"/>
<path d="M14.625 17.3276C14.6689 17.3391 14.7121 17.3508 14.7547 17.3628C15.2592 17.5011 15.6905 17.672 16.1543 17.8836C16.304 17.9497 16.4566 18.0203 16.6148 18.0935C16.8264 18.1913 17.0479 18.2938 17.2853 18.3962C17.9038 18.6647 18.628 18.9495 19.4987 19.1448C20.3693 19.3482 21.3865 19.4622 22.6071 19.4622C24.0473 19.4622 25.211 19.2913 26.1874 19.0228C26.9198 18.8193 27.5301 18.5671 28.0671 18.3311C28.2951 18.2287 28.5125 18.129 28.7208 18.0335C28.8765 17.962 29.0276 17.8927 29.1737 17.8266C29.6945 17.5988 30.1746 17.4197 30.7849 17.2733C31.3952 17.1349 32.1276 17.0373 33.1284 17.0373C34.3165 17.0373 35.1302 17.1675 35.8056 17.3546C36.3101 17.493 36.7413 17.6638 37.2052 17.8754C37.2591 17.8993 37.3135 17.9237 37.3684 17.9486V12.635C37.0183 12.514 36.6398 12.4018 36.2287 12.3096C35.4899 12.137 34.6456 12.0288 33.6611 12H32.5966C31.394 12.0362 30.3952 12.1965 29.5399 12.4317C28.8076 12.6351 28.1973 12.8873 27.6602 13.1233C27.432 13.2258 27.2144 13.3256 27.006 13.4212L27.0052 13.4216C26.8498 13.4929 26.6994 13.5618 26.5536 13.6278C26.0328 13.8557 25.5527 14.0347 24.9424 14.1811C24.3321 14.3195 23.5998 14.4171 22.5989 14.4171C21.4109 14.4171 20.5972 14.2869 19.9218 14.0998C19.4173 13.9614 18.986 13.7906 18.5222 13.579C18.3725 13.5128 18.2198 13.4422 18.0616 13.3691C17.85 13.2712 17.6286 13.1688 17.3911 13.0663C16.7727 12.7978 16.0485 12.513 15.1778 12.3177C14.9992 12.2764 14.8151 12.2387 14.625 12.205V17.3276Z" fill="#00A5A7"/>
<path d="M14.625 27.5967V22.4741C14.8151 22.5078 14.9992 22.5455 15.1778 22.5868C16.0485 22.7821 16.7727 23.0669 17.3911 23.3355C17.559 23.4111 17.7188 23.4842 17.8729 23.5546L17.874 23.5551C18.1003 23.6585 18.3143 23.7562 18.5222 23.8481C18.986 24.0597 19.4173 24.2305 19.9218 24.3689C20.5972 24.556 21.4109 24.6862 22.5989 24.6862C23.5998 24.6862 24.3321 24.5886 24.9424 24.4502C25.5527 24.3038 26.0328 24.1248 26.5536 23.8969C26.6994 23.831 26.8496 23.7621 27.0049 23.6908L27.0058 23.6904C27.2142 23.5948 27.432 23.4949 27.6602 23.3924C28.1973 23.1564 28.8076 22.9042 29.5399 22.7008C30.5164 22.4322 31.68 22.2613 33.1203 22.2613C34.3409 22.2613 35.358 22.3753 36.2287 22.5787C36.6398 22.6709 37.0183 22.7831 37.3684 22.9041V28.2177C37.3135 28.1928 37.2591 28.1684 37.2052 28.1445C36.7413 27.933 36.3101 27.7621 35.8056 27.6237C35.1302 27.4366 34.3165 27.3064 33.1284 27.3064C32.1276 27.3064 31.3952 27.404 30.7849 27.5424C30.1746 27.6888 29.6945 27.8679 29.1737 28.0957C29.0276 28.1618 28.877 28.2309 28.7213 28.3023C28.5129 28.3979 28.2953 28.4977 28.0671 28.6002C27.5301 28.8362 26.9198 29.0884 26.1874 29.2919C25.211 29.5604 24.0473 29.7313 22.6071 29.7313C21.3865 29.7313 20.3693 29.6173 19.4987 29.4139C18.628 29.2186 17.9038 28.9338 17.2853 28.6653C17.0479 28.5629 16.8264 28.4604 16.6148 28.3626C16.4566 28.2894 16.3039 28.2188 16.1543 28.1527C15.6905 27.9411 15.2592 27.7702 14.7547 27.6319C14.7121 27.6199 14.6689 27.6082 14.625 27.5967Z" fill="#00A5A7"/>
<path d="M14.625 37.8659V32.7432C14.8151 32.7769 14.9992 32.8146 15.1778 32.8559C16.0485 33.0512 16.7727 33.336 17.3911 33.6046C17.6286 33.707 17.85 33.8094 18.0616 33.9073C18.2198 33.9804 18.3725 34.0511 18.5222 34.1172C18.986 34.3288 19.4173 34.4996 19.9218 34.638C20.5972 34.8251 21.4109 34.9553 22.5989 34.9553C23.5998 34.9553 24.3321 34.8577 24.9424 34.7194C25.5527 34.5729 26.0328 34.3939 26.5536 34.166C26.6994 34.1001 26.8497 34.0311 27.0051 33.9598L27.0059 33.9594C27.2142 33.8639 27.4322 33.7639 27.6602 33.6615C28.1973 33.4255 28.8076 33.1733 29.5399 32.9699C30.5164 32.7013 31.68 32.5305 33.1203 32.5305C34.3409 32.5305 35.358 32.6444 36.2287 32.8478C36.6398 32.94 37.0183 33.0522 37.3684 33.1732V38.4868C37.3135 38.4619 37.2591 38.4375 37.2052 38.4136C36.7413 38.2021 36.3101 38.0312 35.8056 37.8928C35.1302 37.7057 34.3165 37.5755 33.1284 37.5755C32.1276 37.5755 31.3952 37.6731 30.7849 37.8115C30.1746 37.9579 29.6945 38.137 29.1737 38.3648C29.0275 38.4309 28.8769 38.5001 28.7211 38.5715L28.7177 38.5731C28.5104 38.6682 28.294 38.7674 28.0671 38.8693C27.5301 39.1053 26.9198 39.3575 26.1874 39.561C25.2375 39.8222 24.1106 39.991 22.7241 40H22.4857C21.3189 39.9927 20.3403 39.8797 19.4987 39.683C18.628 39.4877 17.9038 39.2029 17.2853 38.9344C17.0479 38.832 16.8264 38.7296 16.6149 38.6317L16.6136 38.6311C16.4558 38.5581 16.3036 38.4877 16.1543 38.4218C15.6905 38.2102 15.2592 38.0393 14.7547 37.901C14.7121 37.889 14.6689 37.8773 14.625 37.8659Z" fill="#00A5A7"/>
</svg>
