<svg width="1440" height="494" viewBox="0 0 1440 494" fill="none" xmlns="http://www.w3.org/2000/svg">
<g clip-path="url(#clip0_3398_2034)">
<path d="M1243.94 43.2592C1306.14 10.9652 1360.79 -17.4077 1440 13.3702V302.075C1248.76 255.425 1135.36 321.827 1021.37 388.569C933.315 440.13 844.911 491.893 720.007 491.893C602.047 491.893 521.389 462.792 441.722 434.049C327.828 392.956 215.959 352.595 0.015625 399.041V35.9105C44.985 35.9105 83.3835 52.7049 122.996 70.0304C163.871 87.9078 206.039 106.351 258.052 107.491C305.839 108.539 358.052 92.1833 414.709 74.4363C479.484 54.146 550.067 32.0367 626.48 32.0367C694.093 32.0367 752.846 47.2231 814.89 63.2603C884.298 81.2009 957.825 100.206 1052.48 100.206C1134.26 100.206 1191.76 70.3527 1243.94 43.2592Z" fill="#67C5C4"/>
<path d="M0.015625 697.876H1440V697.893H0.015625V697.876Z" fill="#67C5C4"/>
<path d="M1281.05 92.612C1340.97 69.8039 1398.31 47.9748 1440 64.1758V302.075C1248.76 255.425 1135.36 321.827 1021.37 388.569C933.316 440.13 844.912 491.893 720.009 491.893C602.048 491.893 521.39 462.792 441.723 434.049C327.829 392.956 215.96 352.595 0.0170898 399.041V697.876L1440 697.876H0V135.191C0 135.191 84.4102 110.576 176.996 115.616C213.86 117.622 250.402 126.064 289.714 135.145C349.134 148.871 414.881 164.059 497.635 160.696C558.472 158.224 602.966 148.121 649.197 137.624C707.455 124.396 768.47 110.542 868.423 110.542C905.76 110.542 943.13 115.853 981.252 121.271C1041.52 129.836 1103.67 138.669 1170.54 127.203C1206.32 121.064 1244.17 106.652 1281.05 92.612Z" fill="#0FADAC"/>
<path d="M1088.23 170.995C1220.44 137.012 1354.32 102.6 1440 135.894V302.075C1248.76 255.425 1135.36 321.827 1021.37 388.569C933.316 440.13 844.912 491.893 720.009 491.893C602.048 491.893 521.39 462.792 441.723 434.049C327.829 392.956 215.96 352.595 0.0170898 399.041V697.876H1440L0 697.877V197.207C25.0513 194.665 40.4971 205.998 58.9686 219.551C81.9778 236.434 109.682 256.761 166.494 258.006C214.249 259.053 258.457 244.665 306.564 229.008C361.632 211.085 421.81 191.499 498.267 191.499C565.88 191.499 603.668 197.483 643.573 203.802C688.214 210.871 735.504 218.359 830.161 218.359C903.969 218.359 995.694 194.782 1088.23 170.995Z" fill="#11898F"/>
<path d="M723.862 322.45C916.955 242.157 1164.51 139.216 1440 258.141V302.075C1248.76 255.425 1135.36 321.827 1021.37 388.569C933.316 440.13 844.912 491.893 720.009 491.893C602.048 491.893 521.39 462.792 441.723 434.049C327.829 392.956 215.96 352.595 0.0170898 399.041V697.876H1440V697.891H0V292.8C97.2737 265.673 172.697 298.255 254.841 333.741C319.534 361.688 388.396 391.435 475.382 395.234C541.859 398.131 625.843 363.209 723.862 322.45Z" fill="#196574"/>
</g>
<defs>
<clipPath id="clip0_3398_2034">
<rect width="1440" height="493" fill="white" transform="matrix(-1 0 0 1 1440 0.148438)"/>
</clipPath>
</defs>
</svg>
