<svg width="165" height="203" viewBox="0 0 165 203" fill="none" xmlns="http://www.w3.org/2000/svg">
<path d="M0.828125 38.5432C1.14474 38.626 1.45662 38.7106 1.76419 38.7968C5.40593 39.7954 8.51903 41.0289 11.8671 42.5561C12.9476 43.0335 14.0496 43.5432 15.1915 44.0713C16.7187 44.7776 18.3178 45.5172 20.0317 46.2565C24.4958 48.1949 29.7235 50.2507 36.0084 51.6604C42.2933 53.1289 49.6356 53.9512 58.4463 53.9512C68.8428 53.9512 77.2423 52.7177 84.2908 50.7793C89.5772 49.3109 93.9825 47.49 97.8592 45.7866C99.5052 45.0476 101.074 44.3278 102.578 43.6382C103.702 43.1225 104.792 42.6222 105.847 42.1449C109.607 40.5002 113.072 39.208 117.478 38.1507C121.883 37.1522 127.169 36.4473 134.394 36.4473C142.97 36.4473 148.844 37.3871 153.719 38.7381C157.361 39.7367 160.474 40.9701 163.822 42.4973C164.211 42.6695 164.604 42.8459 165 43.0258V4.66947C162.473 3.79608 159.741 2.98637 156.773 2.32071C151.44 1.07471 145.346 0.293898 138.24 0.0859375H130.555C121.875 0.346994 114.664 1.50402 108.491 3.20179C103.204 4.67023 98.799 6.49109 94.9223 8.19448C93.2748 8.93419 91.7042 9.65465 90.1996 10.3448L90.1938 10.3476C89.072 10.8621 87.9869 11.3599 86.9339 11.8362C83.1747 13.4809 79.7093 14.7731 75.304 15.8304C70.8986 16.8289 65.6122 17.5338 58.3875 17.5338C49.8117 17.5338 43.9379 16.594 39.0627 15.243C35.4209 14.2445 32.3078 13.011 28.9598 11.4838C27.8792 11.0063 26.7771 10.4966 25.6351 9.96842C24.1079 9.26207 22.5093 8.52268 20.7953 7.78332C16.3313 5.84498 11.1036 3.78917 4.81866 2.37946C3.52897 2.08092 2.20044 1.80909 0.828125 1.56544V38.5432Z" fill="#00A5A7"/>
<path d="M0.828125 112.67V75.6925C2.20044 75.9361 3.52897 76.2079 4.81866 76.5065C11.1036 77.9162 16.3313 79.972 20.7953 81.9103C22.0069 82.4567 23.1608 82.9839 24.2727 83.4919L24.2812 83.4958C25.9144 84.242 27.4588 84.9476 28.9598 85.6108C32.3078 87.138 35.4209 88.3715 39.0627 89.37C43.9379 90.721 49.8117 91.6608 58.3875 91.6608C65.6122 91.6608 70.8986 90.956 75.304 89.9574C79.7093 88.9001 83.1747 87.6079 86.9339 85.9633C87.9863 85.4872 89.0708 84.9897 90.1919 84.4754L90.1982 84.4725C91.7027 83.7824 93.275 83.0611 94.9223 82.3215C98.799 80.6181 103.204 78.7972 108.491 77.3288C115.539 75.3905 123.939 74.157 134.335 74.157C143.146 74.157 150.488 74.9793 156.773 76.4477C159.741 77.1134 162.473 77.9231 165 78.7965V117.153C164.604 116.973 164.211 116.797 163.822 116.624C160.474 115.097 157.361 113.864 153.719 112.865C148.844 111.514 142.97 110.574 134.394 110.574C127.169 110.574 121.883 111.279 117.478 112.278C113.072 113.335 109.607 114.627 105.847 116.272C104.792 116.749 103.705 117.248 102.581 117.764C101.077 118.454 99.5066 119.174 97.8592 119.914C93.9825 121.617 89.5772 123.438 84.2908 124.906C77.2423 126.845 68.8428 128.078 58.4463 128.078C49.6356 128.078 42.2933 127.256 36.0084 125.787C29.7235 124.378 24.4958 122.322 20.0317 120.384C18.3176 119.644 16.7189 118.905 15.1916 118.198C14.0497 117.67 12.9475 117.16 11.8671 116.683C8.51903 115.156 5.40593 113.922 1.76419 112.924C1.45662 112.838 1.14474 112.753 0.828125 112.67Z" fill="#00A5A7"/>
<path d="M0.828125 186.797V149.819C2.20044 150.063 3.52897 150.335 4.81866 150.633C11.1036 152.043 16.3313 154.099 20.7953 156.037C22.5094 156.777 24.108 157.516 25.6352 158.223C26.7772 158.751 27.8792 159.26 28.9598 159.738C32.3078 161.265 35.4209 162.499 39.0627 163.497C43.9379 164.848 49.8117 165.788 58.3875 165.788C65.6122 165.788 70.8986 165.083 75.304 164.084C79.7093 163.027 83.1747 161.735 86.9339 160.09C87.9867 159.614 89.0715 159.116 90.193 158.602L90.1993 158.599C91.7026 157.909 93.2764 157.188 94.9223 156.449C98.799 154.745 103.204 152.924 108.491 151.456C115.539 149.517 123.939 148.284 134.335 148.284C143.146 148.284 150.488 149.106 156.773 150.575C159.741 151.24 162.473 152.05 165 152.924V191.28C164.604 191.1 164.211 190.924 163.822 190.751C160.474 189.224 157.361 187.991 153.719 186.992C148.844 185.641 142.97 184.701 134.394 184.701C127.169 184.701 121.883 185.406 117.478 186.405C113.072 187.462 109.607 188.754 105.847 190.399C104.792 190.876 103.704 191.375 102.58 191.891L102.555 191.902C101.059 192.589 99.4971 193.305 97.8592 194.041C93.9825 195.744 89.5772 197.565 84.2908 199.033C77.4342 200.919 69.2993 202.138 59.2912 202.203H57.5702C49.1474 202.15 42.0839 201.334 36.0084 199.914C29.7235 198.505 24.4958 196.449 20.0317 194.511C18.3177 193.771 16.7191 193.032 15.1918 192.325L15.1824 192.321C14.0438 191.795 12.9447 191.286 11.8671 190.81C8.51903 189.283 5.40593 188.049 1.76419 187.051C1.45662 186.965 1.14474 186.88 0.828125 186.797Z" fill="#00A5A7"/>
</svg>
