<svg xmlns="http://www.w3.org/2000/svg" viewBox="0 0 17.01 17.06"><defs><style>.cls-1,.cls-2{fill:#fff;}.cls-2{fill-rule:evenodd;}</style></defs><g id="Layer_2" data-name="Layer 2"><g id="Layer_1-2" data-name="Layer 1"><path class="cls-1" d="M0,17.06l1.22-4.57a8.45,8.45,0,1,1,3.37,3.34Zm4.81-2.94.29.17A6.83,6.83,0,1,0,1.76,8.42a6.78,6.78,0,0,0,1,3.55l.17.29L2.25,14.8Z"/><path class="cls-2" d="M11.72,9.6a1.42,1.42,0,0,0-1.2-.28c-.32.13-.52.62-.72.87a.31.31,0,0,1-.39.09A5.46,5.46,0,0,1,6.69,7.94a.34.34,0,0,1,0-.46,1.85,1.85,0,0,0,.49-.8A1.69,1.69,0,0,0,7,5.73a2.23,2.23,0,0,0-.7-1.06,1,1,0,0,0-1,.15,2.12,2.12,0,0,0-.73,1.69A2.33,2.33,0,0,0,4.58,7,4.29,4.29,0,0,0,5.1,8.22,8.67,8.67,0,0,0,5.63,9,8.24,8.24,0,0,0,8,11.19a7,7,0,0,0,1.44.68,3.27,3.27,0,0,0,1.69.27A2,2,0,0,0,12.6,11a.89.89,0,0,0,.07-.58C12.59,10,12.05,9.79,11.72,9.6Z"/></g></g></svg>